<mxfile host="app.diagrams.net" modified="2024-02-03T02:21:12.369Z" agent="Mozilla/5.0 (Macintosh; Intel Mac OS X 10_15_7) AppleWebKit/537.36 (KHTML, like Gecko) Chrome/121.0.0.0 Safari/537.36" etag="93nbf_PvvB8700pSKNKE" version="23.1.1" type="github">
  <diagram name="Page-1" id="TbqWxiUVxZnL4cx0QJOI">
    <mxGraphModel dx="530" dy="323" grid="1" gridSize="10" guides="1" tooltips="1" connect="1" arrows="1" fold="1" page="1" pageScale="1" pageWidth="827" pageHeight="1169" math="0" shadow="0">
      <root>
        <mxCell id="0" />
        <mxCell id="1" parent="0" />
        <mxCell id="bCabj6HtADndmNLXBCn1-3" value="Cloud Server" style="swimlane;whiteSpace=wrap;html=1;" vertex="1" parent="1">
          <mxGeometry x="240" y="270" width="300" height="250" as="geometry" />
        </mxCell>
        <mxCell id="bCabj6HtADndmNLXBCn1-4" value="Nginx" style="shape=image;verticalLabelPosition=bottom;labelBackgroundColor=default;verticalAlign=top;aspect=fixed;imageAspect=0;image=https://www.svgrepo.com/show/373924/nginx.svg;clipPath=inset(3.33% 7.33% 4% 7%);" vertex="1" parent="bCabj6HtADndmNLXBCn1-3">
          <mxGeometry x="240" y="105" width="36.98" height="40" as="geometry" />
        </mxCell>
        <mxCell id="bCabj6HtADndmNLXBCn1-14" style="edgeStyle=orthogonalEdgeStyle;rounded=0;orthogonalLoop=1;jettySize=auto;html=1;exitX=0.5;exitY=1;exitDx=0;exitDy=0;exitPerimeter=0;" edge="1" parent="bCabj6HtADndmNLXBCn1-3" source="bCabj6HtADndmNLXBCn1-7">
          <mxGeometry relative="1" as="geometry">
            <mxPoint x="79.99999999999989" y="145.0000000000001" as="targetPoint" />
          </mxGeometry>
        </mxCell>
        <mxCell id="bCabj6HtADndmNLXBCn1-7" value="Data Preprocessing" style="html=1;whiteSpace=wrap;strokeColor=none;fillColor=#0079D6;labelPosition=center;verticalLabelPosition=middle;verticalAlign=top;align=center;fontSize=12;outlineConnect=0;spacingTop=-6;fontColor=#FFFFFF;sketch=0;shape=mxgraph.sitemap.page;" vertex="1" parent="bCabj6HtADndmNLXBCn1-3">
          <mxGeometry x="20" y="40" width="120" height="80" as="geometry" />
        </mxCell>
        <mxCell id="bCabj6HtADndmNLXBCn1-8" value="collection" style="rounded=0;whiteSpace=wrap;html=1;" vertex="1" parent="bCabj6HtADndmNLXBCn1-3">
          <mxGeometry x="40" y="61" width="80" height="15" as="geometry" />
        </mxCell>
        <mxCell id="bCabj6HtADndmNLXBCn1-9" value="cleaning" style="rounded=0;whiteSpace=wrap;html=1;" vertex="1" parent="bCabj6HtADndmNLXBCn1-3">
          <mxGeometry x="40" y="82" width="80" height="13" as="geometry" />
        </mxCell>
        <mxCell id="bCabj6HtADndmNLXBCn1-10" value="transformation" style="rounded=0;whiteSpace=wrap;html=1;" vertex="1" parent="bCabj6HtADndmNLXBCn1-3">
          <mxGeometry x="40" y="101" width="80" height="15" as="geometry" />
        </mxCell>
        <mxCell id="bCabj6HtADndmNLXBCn1-16" value="" style="shape=image;verticalLabelPosition=bottom;labelBackgroundColor=default;verticalAlign=top;aspect=fixed;imageAspect=0;image=data:image/png,iVBORw0KGgoAAAANSUhEUgAAAgAAAAIACAYAAAD0eNT6AAAKpWlDQ1BJQ0MgUHJvZmlsZQAASImVlgdQk9kWx+/3pTcghC4l9Ca9BZASQgsgIB0sEJIAoYQYCM2GiqjgWhARAWVFV0UUXAsga0FEsS0Kil0XZBEQ1sWCDZX3AUPY3TfvvXln5n73N//v3HPPuXPvzAGAQuaIRKmwHABpwkxxiI8HPSo6ho4bAhBQByTkq8PhZoiYwcEBALHZ+e/24T7ih9hds6lY//7/vxqVx8/gAgAFIxzPy+CmIXwaGS+5InEmAKgqRNfNzhRNcSvCCmIkQYTvTXHiDA9NcfwMf532CQthAYBGqsKTORxxIgBkdUSnZ3ETkTjkBQhbCnkCIcJT+bqmpaXzED6GsBHiI0J4Kj4j/i9xEv8WM14ak8NJlPJMLdOG9xRkiFI5uf/ncfxvS0uVzO5hgAxyktg3BJllkDN7mJLuL2VhfGDQLAt40/7TnCTxDZ9lbgYrZpZ5HE9/6drUwIBZThB4s6VxMtlhs8zP8AqdZXF6iHSvBDGLOcsc8dy+kpRwqZ7EZ0vj5yWFRc5yliAicJYzUkL953xYUl0sCZHmzxf6eMzt6y2tPS3jL/UK2NK1mUlhvtLaOXP584XMuZgZUdLceHxPrzmfcKm/KNNDupcoNVjqz0/1keoZWaHStZnIhZxbGyw9w2SOX/AsA2vgAFjACoQDM+AJQCY/J3OqCFa6KFcsSEzKpDOR18Wns4Vc8/l0a0trWwCm3urMVXg3Mv0GIeqyOW37RQA80hFx05zmth6ABmSW1ZrTDEqRFHYA0LaBKxFnzWjoqQ8GEIEsUACqQBPoAiMkL2tgD5yBO/ACfiAIhIFosAxwQRJIA2KQDVaCtaAQFIPtYBeoANXgADgCjoOToAmcA5fAVXAT3AE94AnoBQNgBIyBD2ACgiAcRIFokCqkBelDppA1xIBcIS8oAAqBoqE4KBESQhJoJbQeKoZKoApoP1QL/QydhS5B16Eu6BHUBw1Db6EvMAomwwqwBmwAW8AMmAn7w2HwUjgRXg7nwQXwVrgcroGPwY3wJfgm3AP3wiPwOAqgSCgllDbKDMVAsVBBqBhUAkqMWo0qQpWhalD1qBZUB+ouqhc1ivqMxqJpaDraDO2M9kWHo7no5ejV6C3oCvQRdCO6HX0X3YceQ3/HUDDqGFOME4aNicIkYrIxhZgyzCHMGcwVTA9mAPMBi8UqYQ2xDlhfbDQ2GbsCuwW7F9uAbcV2Yfux4zgcThVninPBBeE4uExcIW4P7hjuIq4bN4D7hCfhtfDWeG98DF6IX4cvwx/FX8B34wfxEwQ5gj7BiRBE4BFyCdsIBwkthNuEAcIEkUo0JLoQw4jJxLXEcmI98QrxKfEdiUTSITmSFpEEpHxSOekE6Rqpj/SZLE82IbPIS8gS8lbyYXIr+RH5HYVCMaC4U2IomZStlFrKZcpzyicZmoy5DFuGJ7NGplKmUaZb5rUsQVZflim7TDZPtkz2lOxt2VE5gpyBHEuOI7darlLurNwDuXEqjWpFDaKmUbdQj1KvU4fkcfIG8l7yPPkC+QPyl+X7aSiaLo1F49LW0w7SrtAGFLAKhgpshWSFYoXjCp0KY4ryiraKEYo5ipWK5xV7lVBKBkpspVSlbUonle4rfVHWUGYq85U3K9crdyt/VJmn4q7CVylSaVDpUfmiSlf1Uk1R3aHapPpMDa1morZILVttn9oVtdF5CvOc53HnFc07Oe+xOqxuoh6ivkL9gPot9XENTQ0fDZHGHo3LGqOaSprumsmapZoXNIe1aFquWgKtUq2LWq/oinQmPZVeTm+nj2mra/tqS7T3a3dqT+gY6oTrrNNp0HmmS9Rl6Cboluq26Y7paekt1FupV6f3WJ+gz9BP0t+t36H/0cDQINJgo0GTwZChiiHbMM+wzvCpEcXIzWi5UY3RPWOsMcM4xXiv8R0T2MTOJMmk0uS2KWxqbyow3WvaNR8z33G+cH7N/AdmZDOmWZZZnVmfuZJ5gPk68ybz1xZ6FjEWOyw6LL5b2lmmWh60fGIlb+Vntc6qxeqttYk117rS+p4NxcbbZo1Ns80bW1Nbvu0+24d2NLuFdhvt2uy+2TvYi+3r7Ycd9BziHKocHjAUGMGMLYxrjhhHD8c1juccPzvZO2U6nXT609nMOcX5qPPQAsMF/AUHF/S76LhwXPa79LrSXeNcf3TtddN247jVuL1w13XnuR9yH2QaM5OZx5ivPSw9xB5nPD6ynFirWK2eKE8fzyLPTi95r3CvCq/n3jreid513mM+dj4rfFp9Mb7+vjt8H7A12Fx2LXvMz8FvlV+7P9k/1L/C/0WASYA4oGUhvNBv4c6FTwP1A4WBTUEgiB20M+hZsGHw8uBfFmEXBS+qXPQyxCpkZUhHKC00NvRo6Icwj7BtYU/CjcIl4W0RshFLImojPkZ6RpZE9kZZRK2KuhmtFi2Ibo7BxUTEHIoZX+y1eNfigSV2SwqX3F9quDRn6fVlastSl52PlY3lxJ6Kw8RFxh2N+8oJ4tRwxuPZ8VXxY1wWdzd3hOfOK+UN8134JfzBBJeEkoShRJfEnYnDSW5JZUmjApagQvAm2Te5OvljSlDK4ZTJ1MjUhjR8WlzaWaG8MEXYnq6ZnpPeJTIVFYp6lzst37V8TOwvPpQBZSzNaM5UQJqiWxIjyQZJX5ZrVmXWp+yI7FM51Bxhzq1ck9zNuYN53nk/rUCv4K5oW6m9cu3KvlXMVftXQ6vjV7et0V1TsGYg3yf/yFri2pS1v66zXFey7v36yPUtBRoF+QX9G3w21BXKFIoLH2x03li9Cb1JsKlzs83mPZu/F/GKbhRbFpcVf93C3XLjB6sfyn+Y3JqwtXOb/bZ927Hbhdvv73DbcaSEWpJX0r9z4c7GUnppUen7XbG7rpfZllXvJu6W7O4tDyhv3qO3Z/uerxVJFT2VHpUNVepVm6s+7uXt7d7nvq++WqO6uPrLj4IfH+732d9YY1BTdgB7IOvAy4MRBzt+YvxUe0jtUPGhb4eFh3uPhBxpr3WorT2qfnRbHVwnqRs+tuTYneOex5vrzer3Nyg1FJ8AJyQnXv0c9/P9k/4n204xTtWf1j9ddYZ2pqgRasxtHGtKauptjm7uOut3tq3FueXML+a/HD6nfa7yvOL5bReIFwouTF7MuzjeKmodvZR4qb8ttu3J5ajL99oXtXde8b9y7ar31csdzI6L11yunbvudP3sDcaNppv2Nxtv2d0686vdr2c67Tsbbzvcbr7jeKela0HXhW637kt3Pe9evce+d7MnsKfrfvj9hw+WPOh9yHs49Cj10ZvHWY8nnuQ/xTwteib3rOy5+vOa34x/a+i17z3f59l360Xoiyf93P6R3zN+/zpQ8JLysmxQa7B2yHro3LD38J1Xi18NjIhGJkYL/6D+UfXa6PXpP93/vDUWNTbwRvxm8u2Wd6rvDr+3fd82Hjz+/EPah4mPRZ9UPx35zPjc8SXyy+BE9lfc1/Jvxt9avvt/fzqZNjkp4og5060AChlwQgIAbw8DQIkGgHYHAOLimV562qCZ/n+awH/imX572uwBOO4OQFArAM75AJya6kHyp9sgEIxoYa0AtrGRjtm+d7pHnzL9fgAmJ6foN1psPviHzfTvf8n7nzOQRv3b/C9KqAP6+CW4mwAAADhlWElmTU0AKgAAAAgAAYdpAAQAAAABAAAAGgAAAAAAAqACAAQAAAABAAACAKADAAQAAAABAAACAAAAAAAoMJe/AAA+5klEQVR4Ae3d+ZOcx3nY8WfOvbDYxWKBXdzEQYInSFASSVEXdViSZTlS7Iotp1J2jkpVkj8hlV9S+UMS53CqlLIlh7FkWbJIkRRJ8QIBggRIEPd9Lq4958rzDLDAYrmYnevtt9+3v80azmB35u3uT7877/P222+3CAkBBBBAAAEEEEAAAQQQQAABBBBAAAEEEEAAAQQQQAABBBBAAAEEEEAAAQQQQAABBBBAAAEEEEAAAQQQQAABBBBAAAEEEEAAAQQQQAABBBBAAAEEEEAAAQQQQAABBBBAAAEEEEAAAQQQQAABBBBAAAEEEEAAAQQQQAABBBBAAAEEEEAAAQQQQAABBBBAAAEEEEAAAQQQQAABBBBAAAEEEEAAAQQQQAABBBBAAAEEEEAAAQQQQAABBBBAAAEEEEAAAQQQQAABBBBAAAEEEEAAAQQQQAABBBBAAAEEEEAAAQQQQAABBBBAAAEEEEAAAQQQQAABBBBAAAEEEEAAAQQQQAABBBBAAAEEEEAAAQQQQAABBBBAAAEEEEAAAQQQQAABBBBAAAEEEEAAgU4FMi8dq/2nTjfC5xFAIJkCn07I1ySj/5EQQCA4gbz+6f+X4GpNhRFAoC5waVafamAggECIAtkQK02dEUAAAQQQCF2AACD0PYD6I4AAAggEKUAAEGSzU2kEEEAAgdAFCABC3wOoPwIIIIBAkAIEAEE2O5VGAAEEEAhdgAAg9D2A+iOAAAIIBClAABBks1NpBBBAAIHQBQgAQt8DqD8CCCCAQJACBABBNjuVRgABBBAIXYAAIPQ9gPojgAACCAQpQAAQZLNTaQQQQACB0AUIAELfA6g/AggggECQAgQAQTY7lUYAAQQQCF2AACD0PYD6I4AAAggEKUAAEGSzU2kEEEAAgdAFCABC3wOoPwIIIIBAkAIEAEE2O5VGAAEEEAhdgAAg9D2A+iOAAAIIBClAABBks1NpBBBAAIHQBQgAQt8DqD8CCCCAQJACBABBNjuVRgABBBAIXYAAIPQ9gPojgAACCAQpQAAQZLNTaQQQQACB0AUIAELfA6g/AggggECQAgQAQTY7lUYAAQQQCF2AACD0PYD6I4AAAggEKUAAEGSzU2kEEEAAgdAFCABC3wOoPwIIIIBAkAIEAEE2O5VGAAEEEAhdgAAg9D2A+iOAAAIIBClAABBks1NpBBBAAIHQBQgAQt8DqD8CCCCAQJACBABBNjuVRgABBBAIXYAAIPQ9gPojgAACCAQpQAAQZLNTaQQQQACB0AUIAELfA6g/AggggECQAgQAQTY7lUYAAQQQCF2AACD0PYD6I4AAAggEKUAAEGSzU2kEEEAAgdAFCABC3wOoPwIIIIBAkAIEAEE2O5VGAAEEEAhdgAAg9D2A+iOAAAIIBClAABBks1NpBBBAAIHQBQgAQt8DqD8CCCCAQJACBABBNjuVRgABBBAIXYAAIPQ9gPojgAACCAQpQAAQZLNTaQQQQACB0AUIAELfA6g/AggggECQAgQAQTY7lUYAAQQQCF2AACD0PYD6I4AAAggEKUAAEGSzU2kEEEAAgdAFCABC3wOoPwIIIIBAkAIEAEE2O5VGAAEEEAhdgAAg9D2A+iOAAAIIBClAABBks1NpBBBAAIHQBQgAQt8DqD8CCCCAQJAC+SBrTaURQACBFAiUyzWZm7OHSLlUk5I+KmV9XandqZ39vFq988/6i0JPRjK3f5TT08B8ISP2XChm6o+iPevPMvNvuvfj/CslAgQAKWlIqoEAAukQsIP6jetVmbxZk5mZqkxN1mT69vPMdFVf12RWH3awr909zkdSeQsIihoI9PRmpH8gI329Wem7/Tygz719WRkczOozkUIkDRDxRgkAIgZm8wgggMBiATsjv3atIlevVusHezvgX9fHjesVmZ6K+Ki+uDAN/l3S3gV7TE6KXLl8/zdab8Hgyqys1Ic9118PZWVkVa7eo3D/T/KbOAUIAOLUJ28EEEi9gJ2pX79W1YN9RS5fuvW4cql6Tzd90hGsjlcuV+qPxXXp68/I6tU5WT2ak2ENCIaHszI0nOPywmKoGP5NABADOlkigEB6BayL/tKFslw4X5GzZ8r1g2LUXfU+a1qPxqmpspw6qYMTbicLCsbG8rJmLFd/HtEAgfEG8zrungkA3FmTEwIIpFDAzn7PnCrL6dN60D9X1q79RSPuUljnTqtkQcGxo6X6w7bVq2MM1mpAsG59XjZuzsuKFdyg1qlxM5/PvHQ85Ni0GSLeg0B6Bd48q3Xz55JzYqDtLP/MKT2AHSnJWT3wVzjmd7XtbAzBxk152bK1IGvX5ukd6Kru3Y0RANy14BUCwQkQADTf5HbWevjwnBw9XJKJK5XIR+A3X7J0v9MuF2zZUpDtDxZldE0u3ZV1XDsCAMfgZIeATwIEAI1bo6q9I+fPluWTg3Ny4njpM/fTN/40v+22gA0gtEBghz649bBzXQKAzg3ZAgKJFSAAWLrpJiercuCjOTn8yZzei881kqWV4vtpVocIbNxUkEcfL8rYOEPZ2m0J5NqV43MIIJA6ges3qnLww9n6GX+lkrrqpaZCNo+C9cjYw+4gsEBg6/aiZJmPqKU2pgegJS7ejEC6BOgBuNWeFy9W5IO9s3LqRIlr+wndxW2Ogcd3FWWbBgLcUthcIxIANOfEuxBIpUDoAcDUVFXefWdGjn7KgT8tO/iQzkD4hS/2yYYNdHAv16YEAMsJ8XsEUiwQagBgXcgHD8zK++/O1ufUT3ETB1s1u43w2ef7mFOgwR5AiNQAh18hgED6BM7p7Hyv/3a6Pgd/+mpHjeYFbObBs399U3Y91aOXBnoYHzAPs+CZAGABBi8RQCC9AnZL3749M7Lv/Vmu86e3me+pWUVXVtyjl3hspsavfr1P+vuZYXAhEBoLNXiNAAKpFLDb+n7xs0nZu4eDfyobeJlKndcpml/8yU05vWA9gmU+EsSvCQCCaGYqiUC4AjZH/4s/vVmfpz9cBWpu8zn84y8n6z0CTIB/a3/gEgB/FwggkFqBw5/OyeuvTjODX2pbuLWK2YF/n97uaQs2feWFfskFPrMwPQCt7T+8GwEEEiJwUGfy++0rHPwT0lxOi3n8WEle/tVk8Is4EQA43e3IDAEEXAh8qlP4vvXmNIP9XGAnNI9TOjDwN/84FXTvEAFAQndeio0AAksL2DX/11/j4L+0Dj9dKHBSZ358U28JDTURAITa8tQbgRQK2LXdV349xZl/Cts2qiod0t4iu1wUYiIACLHVqTMCKRSw2f1ee3lK5uZYvS+FzRtpld753bRcuRze6k8EAJHuVmwcAQRcCezVSX4uXQrvS9yVb5rzqVjw+JvwBowSAKR5r6ZuCAQiYMv4frhvNpDaUs0oBCYmKvX1IaLYtq/bJADwtWUoFwIINC3w3lszwd/S1TQWb7yvwN73dHGogC4hEQDcd1fgFwggkAQBG/h34ngpCUWljJ4L2PiRgwfCGRBIAOD5DknxEECgscCB/czv31iI37YicOCjcPYnAoBW9gzeiwACXglUdczfMZ3VjYRAtwSmp2pyRueSCCERAITQytQRgZQKnD5dklld5IWEQDcFjh4JI6gkAOjmXsO2EEDAqcDZM2GcqTlFJTM5F8h+RQDAzo4AAokVOH+O+/4T23geF3xysio3ruvkAClPBAApb2Cqh0BaBWxp12tXCQDS2r5x1+tqAPsWAUDcexn5I4BAWwJ2llbh+N+WHR9aXuC63l6a9kQAkPYWpn4IpFTARmuTEIhKYDqAwaUEAFHtPWwXAQQiFSiXCQAiBQ584+UAZgQkAAh8J6f6CCRVYJIegKQ2XSLKfWMy/QEmAUAidkUKiQACiwWqmfR/QS+uM/92JxDC/kUA4G5/IicEEOiiQL6Q6eLW2BQC9wrk8unfvwgA7m1z/oUAAgkR6Ovj6yshTZXIYvb0EgAksuEoNAIIpF+g2JORbD799aSG8Qj09hMAxCNPrggggEATAj0D9AI0wcRbWhTI6LF/YDD9+1b6a9hiw/N2BBBIjkDfCr7CktNaySlpsS8juQDGmPDXk5x9kpIigMAigf4hvsIWkfDPLgj0DYexX4VRyy7sEGwCAQT8EyjqddoCgwH9a5iEl2hwVRiHxjBqmfCdkeIjgMD9BVaO8jV2fx1+06pA74pwgkr+clrdO3g/Agh4JWABQI67AbxqkyQXZng8l+Tit1R2AoCWuHgzAgj4JpDJZWTlGBGAb+2SxPL06CWl/iECgCS2HWVGAIFABeysLa/zApAQaFtAd5/VmzWQDGg3ogeg7b2FDyKAgC8Cdt/2aGBf3r7Yp6Ucg6tz0hvYbaUEAGnZe6kHAoEL2C2BK9eE030beHN3tfoF7T1avSm8fYcAoKu7ERtDAIE4BVZvzOtZXEB9uHFipyTvTDYjYzvyktWxJKElRs50scXnyiKTszWZK9ekVBWp6GM+9dy+tNSrs0v1a7RZCC/YnKfgGYHIBDJ6SjO2vSinD8xJeY7lgiODTsmG7dLR2Na8FAOdS4IAoI0d+eZMTU5dqcrFmzW5XH9U5br+rFxpfmNFDQAGdbrJFRoMrNIzljV67WlUn0cHM2JBQhpTVb+Pz19Xtxs1uT6lDzW7ps+T+kVtdiV9lCv6WgMn88lqZN5TEMnrl/pKtbLHkD6G9TGu3b1DHi/WcUPrdu7agggwwgbdqJOW9BXTuc+0w5bTfWb9zoKcOViScokgoB3DID6jfzI26K8/kEl/lmpTAoClVBb9rKrf4ycnqvLJuYocu1SVq3rQ6jTN6cHuVvBQk+OXbWt3o4eRgYxsGsnKRnvozmkHviQmPZbLyctVOXKxImeu1uSCHvwX9oo0qpP5iG5gpnTrXWa1OPXrQW98KFN3enAsJ+bmSzqpAeLf7b1d+IgL9aNni7q/+FP3iKvb1ObtjoBxDQLOfUwQ0BRYYG+qDxrdkpfB0bC7YgkAGuz4dna653hF9p+pyLTD7sQrkzW5MlmRvSdvBQXWM7BDD3A7xrL1M1+fv+prepw+crEqB89W5PCFiszqZZGo0pS2yZGL9qjKKx+X6wHAQ3o72GMb/AoGoqo/220sUNT13Nc/okHAobLMTbvpjWlcIn7rg4Ad/NdsLcgKPcEKPREALLEH2Nnmq5+U5ZAewOSzJ55LfCLaH13S8ly6WZY3D4us0C+1R9fn5ImNfh3kZnXcw/5TVXn3WFmuTceDZoHTm4fNqSwbtOfkcw/k5MG1Ob2UEG37sHV/BfLaS7T+4YJcPFqSyasEAf62lJuS2Wj/tdsK0uNRb6Gbmi+dCwHAApcZvV5oZ5IfnK6Idfv7mGz8wVtHyvWHXR7YpbeuPKIBgV4ujyXZGb6V5x098LcyBiLqwp7WSzb2GBkoy1d35sUuEZDCFMhq04/tKMjNyxW5dEz/tq2bihScwICu8Gdn/rY/kG4JEADc3hOOaTfyz/eXxA6wSUmn9ABnj99o0PKkBgJfsNGsjlrUAqT39RLF65+WnV4eabVtrFfgp++VtEegIi88nJf1gSzz2apTCO9foRO92Gjv84dLUtK7dUhhCNidISPaYzq01tGXY4JYgxexkwE763/raIQXqyPeIezWQzsQ7zlRkee25WT3A3mJ8pZWu0Tys30lZ6Pcu8FnvQF/9cacPKGB0jf1unCes4BusCZuG7Z88MbHCjKh43qu6SW+mqc9fYmD9bTAfXq30OpNemKkl05JnxUIOgCw285e3Dsnh8+n41vABiq+dLBcHzz4dT3IbVvT3YvfFiy9c7wsr2nAZLfqJS3ZOd8+7bWwYOAPdhVkTL8cSOEJ2MQvIzphkM0aeOV0WW7qHRukdAnkdOzHah0MbL0+pPsLBPsNaAewn7ybnoP/wia2bu+/fmeuXj+7H70byYKlv91TkpcPJPPgv9DAejD+p/YG7D+llSIFK2C3CtqAsHEdH1DgDDEV+4HN5rdqQ142P17k4N9EiwbZA2Bnsi/umdP779Md+X96oSrrhvWywPbOmtnGRfyNXkc/72himyb2247fYpMS/fwDrZPOTfAN7S2xW4NIYQr067iQvuGiTF+tyFW9fXVGA2hSsgRy+hW3Uu/4sev82c6+7pJV8Q5LGySVXS+3g2Pakw0I3L2lsy4wO1v+8VtzcjOlg6be03keJmdF/uCpQqTjJtK+ryW9fhb/9Q/n6o+ZmzrZlwYCUykKeJPePvcrv93mOTSuk6XphD52aYfUmkBwAYDN0PaG3iceQnpaZ7rqybf/RzGhZ0JpPvjP7wMf6wyP1T0i/0SDAOYMmFcJ99mWhB1/MCuzuv/fuFSRmxO6f4TxlZGIRrfeur6VWVmhB/0VdldP+19xiahvlIUMKgCwrv9ffVQSe057slHuNhFOu8kO/v/7d3P1xY3a3UaSPnfofEX+316R7z9JEJCkdouyrDZZTM9Avj5f/KQOHLV5BOgViFK88bZtnIbN3mfT99qZP6lzgaACgL16m9wlXYgmhLRL73u1ufLbSTYh0v95O5yD/7yR9QTYAk1f1/kCSAjMC9gZpx147FHRO21uaC+iBQKzeqkghJOJeYc4nm2gpk3gM7AqxzLPETRAMN909oea5Hv9W2l7mwPAJgVqJ5nT371fim0633bK3M3PvKPzQazRtRce1wCKhMBiAbu9bFjXm7CHXRaY0kGkU9e0Z0AXu6ra6lekjgTslMXmarCBmTYmo8fjFT87qqgnH27vKOFJ4VspxmEd9BfXHPWtlLMb731U739tdwXBV3QNhCO64mHI6Zd6mWitrjK4djDYu2RDbv6m626jzed7BixwtsGDM9rDOK3Pszp4tma3mpAaCtw64GfrZ/e9+vdm4y9sOWeSG4FgAoAPdeavEJJ1Vz67rb1mPaOLpYTSS9JoX7A1DWwp37/4Uk9sayw0Kh+/80+gPjBND2B9gyKrRHuPLCDQcTQWFMxqUDCjqxHa5YPQk92nb2f4vTq+old72noHdR0TOtti2y3aO1LEVtz2MrZ564/raN4Q0k7tmlzVxkpXdrLy93pfvA+rH/rQTjZW5He6yNEXO5xDwYe6UIYYBDQQrx/gVujRbfxW/hW9ZDA3pQGBLjNef54WKc/qOIKUdrjZ5RLrwu/RcTXF/mz9wF+wcUl22k/yQiCIAOCcXqezVevSnuzv6tnt7YXTb+jcCHbPP+muwJtqYgHVSBsB1d2t8AqBWwI2WY3dvta30v596+/ULh2UtWegrPNslHTCLVukqDyjgcKc9RiI1+MKbJGdfCFTH5FvI/RtwJ49F3pEHxnuy0/Ajh9EAHDhehgHtq069387162n9AuIrv/P/rXadNG2UNQPn+ai5Gd1+Ek3BOzSgR0s7XErMLh3q7Z0sQUCFe2cq+jdORYsVMv6M+3QtEGHNhDRejhrt/9d0d9Zsn83+61n3fL27qxOpJPRI4LNhZHV+UNyGqPY76yL3v5dP9jrn4Jdo88Vssy4V5dO9v+CCACuTLrvY7M/bIvuXaZ2p/x9+0hF7Lo36bMCn+r8ABev52XNSvuSJCHgViCrXyTZ+hm15dvePmiXGO79LtKDff2g77Yu5OafQBABgMvR/196MC/P6C14NhGPnUHOaMR+SbvWL9yoypmJmpzQyUSiuByxSe9R3rCq9VHrVr73TwRwfaTNvz2L4d7QsQA2SyAJgSQKWFf9vaHDvf9KYp0oc3cEgggA5hwe3+qXG27/feX1D2+FzV6ljwdG9R9bLRIvyDmdROQTXYLYJp65pgOCupHaPfvfqyvizXl09m+TF/UVNXDSLs9p7fK07s24k7XT9WldPlYHM5EQQACBtAiEEQA4PMDZlLJ/+VpVvrgjXx9Allt0Um6XBtbpJBf2+NrOfH2FvQ/0IPyR3qbYbs/AuK5rXw8w2tgrPzztEGeJ8tkB/+F1WXlIB9ut1x6MhT2T1m15UXtOPj5Xrftcn+5OsLREMRr/SLO19mk3yGq8cX6LAAIIxCMQRACw6BgcufQVvf/X7iN/6UC5PqPcNh2ct14P+IuDASvImB687fHCwwU5oCuQ7TtZEbsfv5X0XJsj/60nIq6R/3agf3JzTr78UEEXLFq6thYsrdVR0/aw2/Hstjx7VFrjWXrjLf7UAiUCgBbReDsCCHgtcJ+vXq/L3HLhemOqZX10vR6w3jqit8vomICNeoa7SR8b9Xq99QAsDAjs90/o9LP2uKh3Lew9WRY76CzXPb9aJ9PYoetgt5MOnI3hSKoF7dVbh/6pjqw3h2aT+dj4ii2rs/I378613VvSbH6L32dB3QW9ndSCERICCCCQBoGYDo1u6Yo2+UTMyUbZH9Mpdu1hycYHjGsQsFXHBjw4lhM7kM8nG3H+rccKenacl3eOVeS9Y+X7HvBs1j87U24nxTE50oDe7vQnzxRldEF9Wym7BQ1/qp//8dslHSfg9pKAtR0BQCutxXsRQMBngSACgFUeDt6yOwRO6api9nhV59+32fssENg5pmuRa2Bgyc6Uv6xnvbawz7vHy/Lu0co9B70hrdcj69o7+7eD50XHE/9Yt/8PdhfaPvjP/yHZJZPvPpGXn76nIwUdppPaVs9sc5ghWSGAAAIRCgQRAIzpwi6+pwntYn7r9uUC6w2wSwGP6aI+NkjOrpE/r9fAP/9AXvZoIPCWBQJ6+94X9OzfJu1oJ526omfPbk+g5YVHCm3dqrhU/SxYenJzVWyJZ1fplK4Jb3cltGvuqpzkgwACCDQjEEQAYKPkk5RsYN7LB8vyqs5Ct02v7+/ekqtf+y7qyb51+T+1+VaPgAUJ7SYbAOgyrRnM1OvRzTytd8TGSbiaxMhuJ72it222e/mim3VnWwgggECnAsk6MrZZ20G9D9+6jZOWbHlxu63wx2/N6a2Fc/WDnd0aN98jYOMI2k0Tjm+ps9siu90PY70jT2gvict0VXtqSAgggEAaBDo4hCSr+o/qveZJTjaT4M/2leS/vjYrB/V2wU7TNYcHMpsI6SHtso8iPbnJbSfWhK7mRkIAAQTSIJDso2ILLfConikWojkGtVCKzt9qlwdefL9U7xWwcQPtpokuzUDYTP526167dyost/1RvWOi1+FdHi7dlqs7v0cAAQQ6EQgmALDu4s/raPq0pOOXq/LfX5+VwzqlcKvJBrK5vIXOAoCokl1WsLkVXKWpWVc5kQ8CCCAQrYC7b85o69HU1p/RAXR2H3pakg1K+8meOV3Mp7VLAqXWY4aOyFbrLY5RJruF0lUqVdvvdXFVRvJBAAEEmhEIKgCwUfTf11XdouqObga82++xQYG/+rBUHyDY7LZLt9cMb/b9nb6vL+Iu+j6HC/WVHC4s1ak7n0cAAQQaCQQVABjEZp1Jzm6lS1Oyc9K//6Akdp96M6nUWodBM5ts+J5eXd0vyhR1gLGw7HOOg6eFefMaAQQQ6KZAcAGA4dkUu7s6uIe+mw3QrW1Zz7QtQNTMtX3XE9lEvXiPzaroKmXS1H3kCo18EEDAS4EgAwC7Yvztxwvy6PoU3BawYLey5XJf0gmElkuu74aYnluuRJ39vpmgp7Mc7n7atd3dnHmFAAIIdFcgyADACO1E7ntPFuQbOj2t6zPi7jbhvVvbrzPjXbzReKBaPutu0JyVblqnLY4yRR1gLCw7AcBCDV4jgECSBYINAK7p2bIdBj/3QE5+pKvLrR1MCYUea1871HiRHDuIuezJjnraYVum11Wy20lJCCCAQBoEUnLUa60prMv4L3VGvdcPl+vr4WzQ+8j//EvF+mUBl7eUtVbq5t9tcwNYgHO/ZAf/lTo7n6tkcxZElWx8wdmr0W1/cbltWmkSAgggkAaBIAMAW1Z3Vi+V/1aX4f2/e0r113ZQfHJTTv7NV3rkh08XZKPDyWW6vSPZoX+56YKH+90dyOzuBJuzIIpkS/S6HAQ46OHS0lG4sk0EEEi/QHABwKzexvWuLqk7nz45V5H/oTPqnb/djWyBgC01+2fPFeVfPF/Ulfdy0ltwd7CcL1enzx+fbXxW7DIAsIP/+yfvmndat4Wff/dYNNtdmMfC12t0qWYSAgggkAaB4AKAd4/dOvtf2Hg2p/5fvTEnb+olAVuBbz6t0xUEf++xgvyHb9zqFbDAwPH4ufmitPx8XhcPanTWPep4zMPbR7q/bO8lHex49GLjQKdluGU+MKrLGpMQQACBNAika0acZVrEDogWACyVrBv51U/KckBX2vuO3iK4fvhubJTTl3bwt0e5UpBjek378IWKPqoyObsgYlhqw3H9TIt16Wb1nnosLMrGVW4PZFN6J8CvD5Tq4ywWlqPd1zYD4i8/KtXHcLS7jVY/Z+NDktgb1Go9eT8CCIQhEFQAYF3/y90zbmeV/+vNOXlkPFefMGhxV3leR9DvWJutP+wgdP5aVU7odejTOhDtzERN7EDnSzp/vaYBwNKlWaM9ADY18tzS8dDSH+rwp3tPVmSdBlZPdGESpje0t+aUurtMm3QWSRICCCCQFoFgAgA7+39HB/81lfQYbj0BNj7gcR0Y+JxOHbxyicFfNl5gXA9o9phPdjnBBr3Z4DR72OQ8caVG999b2dfrAe2Y4y50W7egT8dU7Bi7a9aqj7WNBQCu0xYCANfk5IcAAhEKBBMAvNfE2f9iZxsPsFdX2tuvZ64PrcvJ53XOgHEdF9AoWTfxqoHcnbNc61F4/0S5vliPy7NtK6Pd6dAo7dRLGq4DALvU8lNdwfDbOrZilwZXraZ92ha/0CDCad+/FjKvzb5tbevlbbV+vB8BBBBwJRBEAFA/+7/Ptf9moC0QOHCmUn/Y7YF24LLxAMUm9GzQ2Lf0YPfVnQX5zScl2Xu84uzYNavzHTRKD41n5Zcfirhe4dYunfxif6l+q6LZjDSxnO9NHWvxyse3AqlGdYrqd1vXNNfeUeXPdhFAAIFuCzRxCOt2lu63Z2fgjbrDWymRde/bo5gv1YMAW0/Arg3bQMFGyYKF33u0IFW9CrHvVJOXIhptsInfLVcmG9D2wGhWjji+DDBfdJsg6L/phEzb9cz6Ib0ksGl1VgZ0pj27PGFpRsdTnLlWqwcKh85XGt7VcOsT0f3/sQ3LNHB0WS+7ZVsEysamtJP2vz0rtRaHUoxoMPSdbw+0kx2fQQABjwRSHwDY0rdvN3vtv4WGsV6FD3XefXvYwX3L6pxs1YPp+HBG7Ba73BKD7G3WusllzspbKMKyby0uVYhFn3pqc14DgIhX61mU58J/momNtbCHJVuXoV8DExus6XKCn4VlWvzaZv/brgc9X9ONmcY9PY3KPadjVKxHppU000F+reTDexFAIFqB1AcAdvYf9ch8CwbsDNUelmyugNU6YcxAT0ZsrXqLBex2wfM6HsDOal2lnsLyOW3TOxpGtayXbrorV6NSVTUgsO5+n9LuLTr/g78dAD5RURYEEEiQQKoDADuDbHrkfxcbza6p24p8y63K18Usl9zUqiam+7Xg5Bm9y+Fn+xovILRkBgH80AK43VtS/WcSQCtSRQQQWEog1ec17+vIf9/OJpdqhKh+NjLQXPM+rOMYrMeC9FmBZ7fr4D9/e/8/W2B+ggACCDQp0NwRosmN+fS2ckTX/n2qY6Oy2KCwkSYP6jZU4Fs6QJF0r4Dd0rlbx0iQEEAAgTQKpDYAsJH2IZ/9b9bbFZe7C2DhDr1ZR+Dv1NkPSXcFbB0Iu/+fhAACCKRRIJVfb3bt/3dHlpkFJ42tuaBOW9uYtOabj+alX695k6Q+kdMWDYpICCCAQFoFUvkN94Gd/Qd8q5Kd+T+8rvWmtbsW/nB34c59+Gnd6Zer15qVOnkTl0SWY+L3CCCQcIHWjxKeV9hm7Xsr8LP/R3RQX7tn8pt1UqNnt4d73btHq/6Dp4ptT6zj+Z8HxUMAAQTuCKQuAPhA54qPcwGeO7IxvbABfc9s7ewA/uUd+SDHA9jFj9/fVdC1HLgMEtPuS7YIIOBQIHUBgE20E/LX9+4H8h3f0mdT8X7/qUJ9mmCH+2KsWdk+8w3t9rc1HkgIIIBACAKpCwCe07PXHzxdaLsLPMmNPqQT/zyv9e9GstkMf7C7eM9Sx93Yro/bsIP/N3XE/9M64x8JAQQQCEUgdQGANZydxf2rrxRlewdrzidtB7Db1X6oA/jsGna3kq1x8KNnirJ1TSp3kzrT/Jn/7s0c/Lu137AdBBBIhkBqv9ltENwfPV2U7zxeSP1MbjZP/feeLMjald1vzoIeF//oc0W9qyB9B0ibLMncljrz33ui4nTdhmR8XVBKBBBIk0AXzxf9ZNm1Kac9All5/dOy7NEv9VZXPvOzVndLZdfrv6cD16KcxMcuB9iYgDG9Pe7VQ2WxBXuSnmygn13iWDNofQB3ky0c9Q/7y/WFnS7dzMk3uR3wLg6vEEAgVQKpDwCstWxBF/si37UxLy8dLImtQ5+GZL0cdmB2MWGNHSZt0aD1w1l58f1SomdZtEtEFjTZJY6F6eOzFfnVR3dXj7ReAFsIaIS7AhYy8RoBBFIisOgrMCW1uk81bIKXP9Fr2ieuVOVtnSvg6MWq+LXw7H0KvsSPN+pUv3bwt7XqXaaNOk+Aja94+WBZ9uuES0nyW9mXkRd26i2Oiy5nXJuqaWB466x/oaXNKfHyx6X6paSFP+c1AgggkAaBoAKA+QazyW42jxRlYrIm7+mKgbZugC0elITUW7g10t+uW1v3fxzJyvDdJwry+Iac/PKjklzSpY99TjYz4hd0boTndIIjG9Mwn2y+CJs0ap/OHWEH+6XS4fNVOaE9RrZWAgkBBBBIk0CQAcB8A9p1YLs0YLfOfXy2Kh9pF/CZCT97Bay7+ildme7ZrTnp9WS+fusN+Jdf6lG7irx+uCyXb97nKDoPHtPztjU6DmRtVmZKNTl/rVYPWA6eq8hJbetmujBeOlCWP/9SMbaAKyY2skUAgZQLBB0AzLetjRF4Ss+o7XFNzwoPnK7IJxeqcv56cweI+e1E8Wzd1rs25uRJvU2t3el9oyjX/DatF+JhnXrYutU/OV8Ru25+XC+xNHNgnd9G1M+HtFz2aDdduFGV/bpPPKHtQEIAAQTSIkAAsKglh/SAa5MJPbdDZFpHhB+/VJVj2gV8TJ9vOFpgyAKSHXrG+pAuz7t1NJuIM08LBOxOBHvYNXVbkOnQhYr3lwcWNf99//nqJ+X6rZALLyHc9838AgEEEEiAAAFAg0ayA7Gd3drDkgUAF7QL+Zz2DFywh177vm5BQYc93zaQb2woIzawb4M+1g0l46B/PzqbkfDLD+XrD+tROaq9KTbw8ty1ar2H5X6f8/nnk7O1+hLTX36wuT8Zu3XS5hnwPWWsoC3uvzamgoQAAskXyLx0PG13xrttlKp+eVpgYAPK7GEHijntba5oL/hsuVa/Z16/YsUWKCjoSj12Ld+W3V3RI/UR/CMD2c/cjua2Bm5zs16V89drclV7Cepmamd3Y9j1ed+THdD/7Vd7ZIXjOy+idHnzrG7df/olCS5rEP7R0bklf8cPEehUYO2I9mhuKnS6Ga8/39zpjNdViLdwdgJllw3sQVpewHpVHhi91+rdYxX59YHS8h+O+R12p8greinA5hAgIYAAAkkXoDMv6S2YgvLbAMcV2iuShPThmUr9UkYSykoZEUAAgUYCBACNdPidEwFbyOhzDyTggrlpaHe5TYJEQgABBJIuQACQ9BZMSfltyt2kXEY5qQMaO7mtMCVNRjUQQCDhAgQACW/AtBTfbq/7rl5bT8aFgFu9ADbQk4QAAggkVYAAIKktl8Jy2xTNu3Q8QBKS3cWw5wSXApLQVpQRAQSWFiAAWNqFn8Yk8MLDhc8s0RtTUZbN9o1PK4m4fXHZivAGBBAIUoAAIMhm97fSRe0A+GefLzpf5bAdkXGdvCkb14pM7RSYzyCAAAILBAgAFmDw0g+BAZ1o5481COjxdJYKG6dgqwv+8eeKQU3i5MfeQSkQQKBbAgQA3ZJkO10VWDOYkT99tlifNbGrG+5wYzaT4x/uLsgLD+cly19Ph5p8HAEE4hTgKyxOffJuKDC2Mit/8XxR1uqzD2m7LtD0r7/SU1/wyIfyUAYEEECgEwFPO1k7qRKfTZOAXQ74s+eK8g/7S3JAZ+GLI61ekZGv6OJGD44l4w6FOIzIEwEEkidAAJC8NguuxDYw8PtPFvQAnNU1A8py01ZgdJBGBjLyRV0a+pF1uUQsyeyAhCwQQCBFAgQAKWrMtFdl53hOtq3JyTtHy/LOcb0FT1cW7HbSBRtlh57pP6XzEWxarcsydzsDtocAAgh4IkAA4ElDUIzmBGzGQDsr/7yOwv/wdKX+OHO1syn5bJnfB0az8pAe+O06f2+Bw35zrcG7EEAgyQIEAEluvYDLboGAnaXb4/p0TY5drsqZiWp9pb4JnaXPlu5dKtnlhOGBrKzS7v11wxnZMJyV8aGs3s+/1Lv5GQIIIJBeAQKA9LZtMDVb2ZeRXRtz9cd8pe3ywKzO1DungYAd3O32vWI+4+3cAvPl5hkBBBBwJUAA4EqafJwK9BYz0lt0miWZIYAAAokS8OMG60SRUVgEEEAAAQSSL0AAkPw2pAYIIIAAAgi0LEAA0DIZH0AAAR8EGLfpQytQhiQLEAAkufUoOwIBC7AQY8CN76DqIdwZRADgYEciCwQQ6L6Azd9AQiAqgXwAEQABQFR7D9tFAIFIBfJ6WycJgagECgHcI0cAENXew3YRQCBSAbvVk8sAkRIHvfG+nvQHmAQAQe/iVB6B5ArY13MIX9LJbaFkl7y/N/2Hx/TXMNn7IKVHAIEGAkM6rTMJgW4L2KyhvfQAdJuV7SGAAALdExheQQDQPU22NC8wNBjGSqD89cy3OM8IIJA4gZGVOcnxLZa4dvO9wGt0gbAQUhi1DKElqSMCAQpk9RtsdIj7AQNs+siqXMhlZJUGliEkAoAQWpk6IpBigQ1r8pL+8dopbkDPqrZuNBfM8uAEAJ7tfBQHAQRaExjQ5aCH9ZotCYFOBexykgUAoST+akJpaeqJQIoFtq0vMCdAitvXVdU2rc2L3QEQSiIACKWlqScCKRbo783IutXhnLmluCljq1qfTixll5NCSgQAIbU2dUUgxQJb1xWkP4B7t1PchPFVTU/6H9xcEBtUGlIKrLohNS11RSAsAfvyfsi+xMPpwQ2rgSOs7ZaxvIQ4qRQBQIQ7FZtGAAG3AoP9Wdm5RccDuM2W3BIssFpvI92kAUCIiQAgxFanzgikWMDmBdiyLswv9BQ3ayRVs7P+h7XXKNSAkQAgkt2KjSKAQJwCNpp7c6BndXG6Jylv6y16bFsxuOv+C9uIAGChBq8RQCA1AlvG82K3BwZ7epealux+RWzeiCf04B/6NNL0k3V/32KLCCDgicCGNTkp6LfcoVMlqVY9KRTFiFVgfCQnOzYyb4Q1AgFArLsimSOAQNQCa1flxLp7Dxyfk8npWtTZsX1PBewuke3aIzTOfBF3WohLAHcoeIEAAmkV6NP5AZ56sEfWBzTNa1rbsp162URRu7X9Ofjfq0cPwL0e/AsBBFIqYPMDbN9QkJU68vvwqbKUKvQGpLSp71TLRvfb3P42SVRok/zcQWjwggCgAQ6/QgCB9AmsGc7JyMqsnDhfkdMXy1IjDkhfI2uN7BY/C/hssSjS0gIEAEu78FMEEEixQE67A7bqXAFjOiDsyOmSTNxghGBamrtYyMgD2rY29oNDf+NWJQBo7MNvEUAgxQK2dsDjejvY5etVOXWhLNcnCQSS2tx24N+g3f3rRvPB397XbBsSADQrxfsQQCC1Aqv1ksDqlUW5pgGABQITGhBwZSAZzd1jq/jpQd9Wg+Q6f2ttRgDQmhfvRgCBFAvYdeOhrUW5OV2V0xcqculaRapEAl62uN3aaWf8o3T1t90+BABt0/FBBBBIq8CKPltUSAeRVQpy6WpFzk9UuDzgQWNbN//oUFbGR/IM7utCexAAdAGRTSCAQDoF8jmp3ztu949PzdTk3JWKXNSAYK5Et4CrFrdu/ZGVORnTM/1VOoVvhpF9XaMnAOgaJRtCAIE0C9hkMtvW2/oCeZnUYGDieqU+ePCGjhsgHOhuyxfyGVlVH5eR1YN+jkF93eW9szUCgDsUvEAAAQSaExjQYGCgNy8b14rMztXqgcDVGxUdRFiTMhMMNYe44F02SZNddhlekZUR7eIf1Nfcw7cAKKKXBAARwbJZBBAIQ8BGodsUw/PTDM/M1uTqzapcm9KHPluAQLpXwA74/bcP+DYzow2+tMstJLcCBABuvckNAQRSLtCrcwuM9+TuzDs/rQHB5ExVJqdqclOfb+qCRCGNIbAldwd6szLQn6mf5VvviZ3tcy0//j8EAoD424ASIIBAigVsIaI+DQhGh+5WslTWYEADARtYODNXFQsSZrSnwHoLknrboY3Q79PeEAuA5p8H9EDfrz+jO/9u2/v0igDAp9agLAggEIRAfZDboA50G7Tq3u37tnUJLBCwh/USzOrDgoXZkkjJ/q2v7dlpkKDH76IOyivkMtJTvPXaDvZWB/t3rx30i1kG6iVwzyUASGCjUWQEEEingHWL3+ox0BcNkgUANtiwUhF96MBDncG4rMFBRZ/nFzeyn8+PPrD32+/s2rt1yc+nnB7U53PKaRyS13/btXhbK6H+79vP8+/nOV0CBADpak9qgwACAQjYgdzOyqX+DT5/CA+g4lSxqwILYsGubpeNIYAAAggggIDHAgQAHjcORUMAAQQQQCAqAQKAqGTZLgIIIIAAAh4LEAB43DgUDQEEEEAAgagECACikmW7CCCAAAIIeCxAAOBx41A0BBBAAAEEohIgAIhKlu0igAACCCDgsQABgMeNQ9EQQAABBBCISoAAICpZtosAAggggIDHAgQAHjcORUMAAQQQQCAqAQKAqGTZLgIIIIAAAh4LEAB43DgUDQEEEEAAgagECACikmW7CCCAAAIIeCxAAOBx41A0BBBAAAEEohIgAIhKlu0igAACCCDgsQABgMeNQ9EQQAABBBCISoAAICpZtosAAggggIDHAgQAHjcORUMAAQQQQCAqAQKAqGTZLgIIIIAAAh4LEAB43DgUDQEEEEAAgagECACikmW7CCCAAAIIeCxAAOBx41A0BBBAAAEEohLI5yqzUW2b7SKAQMQCtZpIZXqq7VxGLp2RmmTa+nxheK3UMrm2PsuHEEAgfoH8wM3z8ZeCEiCAQFsCNY0ATp4819Zn7UNn9r6nAUB76YnHd0k+l2/vw3wKAQRiF+ASQOxNQAEQQAABBBBwL0AA4N6cHBFAAAEEEIhdgAAg9iagAAgggAACCLgXIABwb06OCCCAAAIIxC5AABB7E1AABBBAAAEE3AsQALg3J0cEEEAAAQRiFyAAiL0JKAACCCCAAALuBQgA3JuTIwIIIIAAArELEADE3gQUAAEEEEAAAfcCBADuzckRAQQQQACB2AUIAGJvAgqAAAIIIICAewECAPfm5IgAAggggEDsAgQAsTcBBUAAAQQQQMC9AAGAe3NyRAABBBBAIHYBAoDYm4ACIIAAAggg4F6AAMC9OTkigAACCCAQuwABQOxNQAEQQAABBBBwL0AA4N6cHBFAAAEEEIhdgAAg9iagAAgggAACCLgXIABwb06OCCCAAAIIxC5AABB7E1AABBBAAAEE3AsQALg3J0cEEEAAAQRiFyAAiL0JKAACCCCAAALuBQgA3JuTIwIIIIAAArELEADE3gQUAAEEEEAAAfcCBADuzckRAQQQQACB2AUIAGJvAgqAAAIIIICAewECAPfm5IgAAggggEDsAgQAsTcBBUAAAQQQQMC9AAGAe3NyRAABBBBAIHYBAoDYm4ACIIAAAggg4F6AAMC9OTkigAACCCAQuwABQOxNQAEQQAABBBBwL5B3nyU5IoBA9wQyMjjY3/bmRkfX6mdrbX0+m+H8oS04PoSAJwIEAJ40BMVAoB2BTEZk1aqhdj5a/8zGDZv0ub0AoO1M+SACCHghQAjvRTNQCAQQQAABBNwKEAC49SY3BBBAAAEEvBAgAPCiGSgEAggggAACbgUIANx6kxsCCCCAAAJeCBAAeNEMFAIBBBBAAAG3AgQAbr3JDQEEEEAAAS8ECAC8aAYKgQACCCCAgFsBAgC33uSGAAIIIICAFwIEAF40A4VAAAEEEEDArQABgFtvckMAAQQQQMALAQIAL5qBQiCAAAIIIOBWgADArTe5IYAAAggg4IUAAYAXzUAhEEAAAQQQcCtAAODWm9wQQAABBBDwQoAAwItmoBAIIIAAAgi4FSAAcOtNbggggAACCHghQADgRTNQCAQQQAABBNwKEAC49SY3BBBAAAEEvBAgAPCiGSgEAggggAACbgUIANx6kxsCCCCAAAJeCBAAeNEMFAIBBBBAAAG3AgQAbr3JDQEEEEAAAS8ECAC8aAYKgQACCCCAgFsBAgC33uSGAAIIIICAFwIEAF40A4VAAAEEEEDArQABgFtvckMAAQQQQMALAQIAL5qBQiCAAAIIIOBWgADArTe5IYAAAggg4IUAAYAXzUAhEEAAAQQQcCtAAODWm9wQQAABBBDwQoAAwItmoBAIIIAAAgi4FSAAcOtNbggggAACCHghQADgRTNQCAQQQAABBNwKEAC49SY3BBBAAAEEvBAgAPCiGSgEAggggAACbgUIANx6kxsCCCCAAAJeCBAAeNEMFAIBBBBAAAG3AgQAbr3JDQEEEEAAAS8ECAC8aAYKgQACCCCAgFsBAgC33uSGAAIIIICAFwIEAF40A4VAAAEEEEDArQABgFtvckMAAQQQQMALAQIAL5qBQiCAAAIIIOBWgADArTe5IYAAAggg4IUAAYAXzUAhEEAAAQQQcCtAAODWm9wQQAABBBDwQoAAwItmoBAIIIAAAgi4FSAAcOtNbgh4JlDzrDwUBwEEXAkQALiSJh8EPBTg8O9ho1AkBBwJEAA4giYbBBBAAAEEfBIgAPCpNSgLAggggAACjgQIABxBkw0CCCCAAAI+CRAA+NQalAUBBBBAAAFHAgQAjqDJBgEEEEAAAZ8ECAB8ag3KggACCCCAgCMBAgBH0GSDAAIIIICATwIEAD61BmVBAAEEEEDAkQABgCNoskEAAQQQQMAnAQIAn1qDsiCAAAIIIOBIgADAETTZIIAAAggg4JMAAYBPrUFZEEAAAQQQcCRAAOAImmwQQAABBBDwSYAAwKfWoCwIIIAAAgg4EsiX8gO/cpQX2SCAQBcFqpVy/8zE5ec72eS5s2eklmltC5lMRjY++NiV1j7FuxFAwDeBFv/0fSs+5UEgXIG//fnbO6uVysFOBN7f+57UWtyABQD/+T/+e747WnTj7Qj4JsAlAN9ahPIggAACCCDgQIAAwAEyWSCAAAIIIOCbAAGAby1CeRBAAAEEEHAgQADgAJksEEAAAQQQ8E2AAMC3FqE8CCCAAAIIOBAgAHCATBYIIIAAAgj4JkAA4FuLUB4EEEAAAQQcCBAAOEAmCwQQQAABBHwTIADwrUUoDwIIIIAAAg4ECAAcIJMFAggggAACvgkQAPjWIpQHAQQQQAABBwIEAA6QyQIBBBBAAAHfBAgAfGsRyoMAAggggIADAQIAB8hkgQACCCCAgG8CBAC+tQjlQQABBBBAwIEAAYADZLJAAAEEEEDANwECAN9ahPIggAACCCDgQIAAwAEyWSCAAAIIIOCbAAGAby1CeRBAAAEEEHAgQADgAJksEEAAAQQQ8E2AAMC3FqE8CCCAAAIIOBAgAHCATBYIIIAAAgj4JkAA4FuLUB4EEEAAAQQcCBAAOEAmCwQQQAABBHwTIADwrUUoDwIIIIAAAg4ECAAcIJMFAggggAACvgkQAPjWIpQHAQQQQAABBwIEAA6QyQIBBBBAAAHfBAgAfGsRyoMAAggggIADAQIAB8hkgQACCCCAgG8CBAC+tQjlQQABBBBAwIEAAYADZLJAAAEEEEDANwECAN9ahPIggAACCCDgQIAAwAEyWSCAAAIIIOCbAAGAby1CeRBAAAEEEHAgQADgAJksEEAAAQQQ8E2AAMC3FqE8CCCAAAIIOBAgAHCATBYIIIAAAgj4JkAA4FuLUB4EEEAAAQQcCBAAOEAmCwQQQAABBHwTIADwrUUoDwIIIIAAAg4ECAAcIJMFAggggAACvgkQAPjWIpQHAQQQQAABBwIEAA6QyQIBBBBAAAHfBAgAfGsRyoMAAggggIADAQIAB8hkgQACCCCAgG8CBAC+tQjlQQABBBBAwIEAAYADZLJAAAEEEEDANwECAN9ahPIggAACCCDgQIAAwAEyWSCAAAIIIOCbAAGAby1CeRBAAAEEEHAgQADgAJksEEAAAQQQ8E0g41uB0lie9z448e9q1drzaawbdYpPoFqtrpyemf1BJyU4dOiISIvfAvb28XXr9IMkBKIRyGezv/v2N57859Fsna3OC+TnX/AcoUBNvqJfsuzMERKHuOlsLisDA30dVX3VyEirx/96frMzs9s6ypgPI9BAINPbQ+90A59u/QrkbkmyHQQQQAABBBIkQACQoMaiqAgggAACCHRLgACgW5JsBwEEEEAAgQQJEAAkqLEoKgIIIIAAAt0SIADoliTbQQABBBBAIEECBAAJaiyKigACCCCAQLcECAC6Jcl2EEAAAQQQSJAAAUCCGouiIoAAAggg0C0BAoBuSbIdBBBAAAEEEiRAAJCgxqKoCCCAAAIIdEuAAKBbkmwHAQQQQACBBAkQACSosSgqAggggAAC3RIgAOiWJNtBAAEEEEAgQQIEAAlqLIqKQLcFWlwJuNvZsz0EEIhRgAAgRnyyRiB+AUKA+NuAEiAQjwABQDzu5IoAAggggECsAgQAsfKTOQIIIIAAAvEIEADE406uCCCAAAIIxCpAABArP5kjgAACCCAQjwABQDzu5IoAAggggECsAgQAsfKTOQIIIIAAAvEIEADE406uCCCAAAIIxCpAABArP5kjgAACCCAQjwABQDzu5IoAAggggECsAgQAsfKTOQIIIIAAAvEIEADE406uCCCAAAIIxCpAABArP5kjgAACCCAQjwABQDzu5IoAAggggECsAvlYcw8kc11v7ccitQOBVJdqJkigv7/3azWpsSRggtoshKJms5m3QqgndUQAAQQQQAABBBBAAAEEEEAAAQQQQAABBBBAAAEEEEAAAQQQQAABBBBAAAEEEEAAAQQQQAABBBBAAAEEEEAAAQQQQAABBBBAAAEEEEAAAQQQQAABBBBAAAEEEEAAAQQQQAABBBBAAAEEEEAAAQQQQAABBBBAAAEEEEAAAQQQQAABBBBAAAEEEEAAAQQQQAABBBBAAAEEEEAAAQQQQAABBBBAAAEEEEAAAQQQQAABBBBAAAEEEEAAAQQQQAABBBBAAAEEEEAAAQQQQAABBBBAAAEEEEAAAQQQQAABBBBAAAEEEEAAAQQQQAABBBBAAAEEEEAAAQQQQAABBBBAAAEEEEAAAQQQQAABBBBAAAEEEEAAAQQQQAABBBBAAAEEEEAAAQQQQAABBBBAIPkC/x/GHViOw8FJJAAAAABJRU5ErkJggg==;" vertex="1" parent="bCabj6HtADndmNLXBCn1-3">
          <mxGeometry x="55" y="145" width="50" height="50" as="geometry" />
        </mxCell>
        <mxCell id="bCabj6HtADndmNLXBCn1-18" value="Original Data" style="swimlane;whiteSpace=wrap;html=1;" vertex="1" parent="1">
          <mxGeometry x="60" y="270" width="165" height="250" as="geometry">
            <mxRectangle x="60" y="270" width="120" height="30" as="alternateBounds" />
          </mxGeometry>
        </mxCell>
        <mxCell id="bCabj6HtADndmNLXBCn1-2" value="AQMS" style="shape=image;verticalLabelPosition=bottom;labelBackgroundColor=default;verticalAlign=top;aspect=fixed;imageAspect=0;image=data:image/png,iVBORw0KGgoAAAANSUhEUgAAAJQAAACUCAYAAAB1PADUAAAACXBIWXMAABYlAAAWJQFJUiTwAAATH0lEQVR4nO2deZQU9Z3AP786unvugZnhGi4HTIQAMsSgIomK4q2JG42om3VzrPpMYozGt4mbzbpXVnO+Z5DE3WyeGzW62ejLJmajgEYNQfEWUQ5REBQGBpirZ/qo47d/NAMz2NVT1V090z3z+7zn81FdXfWbrk/9ju/vElJKiUIREtpIJ0AxulBCKUJFCaUIFSWUIlSUUIpQUUIpQkUJpQgVY6QToMhN2pZ0JaGtK/N/280c1wSYGlRHYVyVRlMVRM2RTSuAUIHN0kMC8aSkKylI9xsEpGzoSkDC+uB3hICGSpjZoFETG760fiAdSqjSIm3D/rhL2vY+J2HBod6judVAhIBJtYLjmwT6CFRolFAlRHdCcrBP4ueJuBIOxLPnVgAVJixo1qiMhJvGoVBClQidCcmh3mCPQko40At96eyfmzosnCqojooQUugP1corAeIpAssEmeKtsQpiHk0ry4GN78mcxWfYKKFGmLQtaY9nqQz5RAhorMm0+rKRcmDT3uErhJRQI8yBXn91plzoAsZXen/elZDs6RoeqVQcqsgkLElvGhxHIoRA16HahKgp6EtD0qNSHZTKGJjJTDGXjR0HJZNqhWdOFhZKqCKRsiTtcUl60APO5BJdQNSQQHhPV0iojQoO9mXPidI27OuRTK4trlGqyCsCvSnJnu5jZRpMyoaUHW4xVBnNfb193cVv7SmhQiZtS/bHC68X5YMmvFt8AJ0JF7fI6VJChczBXkZEpn4iOYSSErqTxb2/EipELCdTCR9JDD33516R9bBQQoXISMsEmRBCLuwc9bowUEKFiJN/fHLYKHYSlVAhMnw9Zt4MVX8zivzEVRwqAJaTGTLieDSVQo4C5IUQUBnJiNWf3oH0piVt3QJTg8poZlRCqPdXow1yk7CgOynpS49MKKBQXFeSsATxFCSzdBJHdWiqFTTXiVCGuiihPLAcaI+7oXWNlAJDDcybXCeY3VjYwDwlVBbiqUy3yWj8ZVw3M4bKK3xQGYF5UzSq8sytlFDH0JPMyDSakRLac4z2NHU4aZpGLA+pVCtvAP0duqMdIaCx2rvFZzmwcY+bVxhECXUYCeyPj3Qqhg/t8CwZL3rTsLMj+MulhDpMT1JiOaM/dxpILJI7bPDeIUk6YCxECXWY7mQphCWHn5qo92euhD3dwa6nhCJTZ0hna0uPAWJm7gj/gR6VQwUmWQKduiOFEBDN0V8STwULnwxL18v2NsneztJ9aPG0JJ7yl76+Pujrzf6ZpknmHqfR3FBexaeuAx5TrSSChIXvKHrRhfrJEzZPvDm6ipO+TknCowWkCYe/vljntHlDDEwqIYYqpjJ9l/5ekqIWeW/vk6NOJoDKeoHm8Sq6Eh5cXeRBRyEzVN6sBZgqU1Sh9nWXbjFXKEaO5nYimeniKBdyBTCFCDYiobiV8tHr06hBiswMHC8qzGBz+VQrb4yTSpFzJkxjTbDrKaHGOHGPlVsgUw2fXBOsxaqEGsOknUyfnRcTa/2HC/pRQo1RpIQOj3gaZOb3zW4KrseoGlPeMgGWHD8874iVFEgne3FgGILeFCQ9ogeGlulDG2oOXTE51Jd9SDBkRiLMn6Jh5pG+USNUywS4oFVn+vjSiFJLAYlu70Fs8RRMqR96Hl3o6ZIZmeKp7J/rGixoFtTmufDrqBCqZQKc36pTGhOZMgiZWfLZSyhXQiIlqI4NX2zFcuFQ3Dtnqq8QzJ0kClqeuuyFKkWZ+hmyS2MYRl9LAWkL4snsLTohoK5CMGOcYHxV4fcra6FKWSY/xEwYV1mctDsSHAfSjkAzJTETGgd8bmqCmCGprxSh1uXKVqhylwmgIiKKJtRgvO4R/r3LMmwwGmQarZSdUEqm0qashFIylT5lI5SSqTwoC6GUTOVDyQulZCovSjpsoGQqnD2dklVrMqHx688ymTq+uPcrWaGUTIUhJax+3eUX621Sh7t//vZXFlcu1rmwVUMU6WctSaGUTIXR0Qt3r3F4dffg4Q4pS3Lvn21e3qnxpeU6DQEHz/mh5OpQSqbC+PM2l5sesD4g00A2vu/ytQctntkS/kyKksqhZiqZ8qYnKfnPpyTr3vK3OV5fCu5aY7PhbY3rlunUVoTzm5eMUDMnwIUFypRrSvVo5tVdklVr7bw2cdzwjsvWNskNZxksmlm4VCXxCMKQydBgXAjDL8qJlCV5YL3k/zYWtmVnZ5/kjt9ZnDlX5/Of0Mt/PNRlH9Opryrs7TA1itZyKUW2tUlWrnHY0xlOPcgFnnjTYdN7kq8s1zhhSn7V65IQytQhUj5LAYwojgsPP+/yyIt2UdZF39ft8g+PuFzUqnPlKXrgsVIlIZTCH7sPwl2rLXYc8G9SfZXg8x/XQcLP19l05pjp0o8j4X9fdti42+UrZ5tMbxz6O/0oocqEeFJy28M2CZ/LDgGc3KIfbsFl/j1vmsk9T7pseMffYh472iW3PZzmp9eYVMf81SeUUGVCR6/wLVNFFL6w1OSMuYMlqK0Q3Hqhzrqtgv942qbXY+bLQJLpzL2rfc6CUUKNMuY1a1x/ls6kOu8cZemHNeY2m6xc67IxRwA0H5RQo4SIASsWG1y0SPO1Wsr4asG3Pqnz2Gsa9z9rkS4s8nAEJdQooKVJ8OWAlWfIzBC+YKHgxBkRVq62eGt/4c3GkuvLU/hHF/Cpjxp85/LgMg2keRz8y+UmVyzWMQqM5ZV1DiXbu5DrNyOsHPWACXWIpXNBC+fdcaVEK4EI6sRawY3n6Hx4cjh/l67B5SfrLJyp8ePV+QdMy1Yo0RHH/eo90JMYcqE8uXEH2pcvzvteKdti9XOv8eymbbR3dBMxDT40fQoXLVnErKmT8r5uEAY6fO48nb9aWlgXiRfHTxR8/0qD+/7k8IdNzgfuPRRlK5TcuAN6Ev5OXr8F8hSqN5Hi+w/+ll1tB44cS6YtNm5/l01v7+Lq807njNY5eV07CE018IkPaXxijs7C6cXNISMGfOFMnY/O0nhms8OEWv/fLV+hgqyKWsDu0vf+/o+DZBqIKyUPPPY0Myc1MHPyhLzv4YeoCTeeO7yPa+F0wcLpwe5ZtkIFwk1RvfPuwF97P67z8rbcBaorJas3vMa1n1qeb+qKiivh8Y0uUgrOWyDCqkp6MiaEEtLF7N0a+Hvbd9UDk4c8b9vuvXmkqvi0d0vuWm2zeW/mpVj/lsYNZxtMGVe8e6qwQQ7SHivUfeA8u/QWun/yDcnND1pHZALY0uZy63+nWf168ZYRGhM5VL5Mrc6xoukApjQW8ZUPSHdC8pO1Di/szF5vTFnw709ZvLhD5/plGuOrw63gjwmhbKGxts7Eltl7QwXQWLGQ46ovQNeObiDX3OLSuPlxDnT25Lz+0gUfDjO5efP8O5KfPmnR7aPx+/K7Drf80uHaZSanzg5PqjFR5OlalNbmO5jVdD1VVa0kdJ0+nSP/9erwbvpVNnT9jG6RxI004EYa0Cqa+NyFZ6LnqMnOnzWdJfNHVqi+NKxaa/Pd3/uTqZ+eFPzgDxZ3Pe76Gnngh/IVanKD71PFpHFowqQxNo9547/Akon/xLSqZYhjMuiEs5+XDvyA9sRrR46dMKOZW6++hEkN9YPO1TWNs06az5c+fS5asZtOOXjjPZev/9Lmyc35h0ae2WbztQfSvL678PQIKYu30OP6bS4/fHzobuxvXqIzLo8x5fK3G5BrXskZZ5INNYhrz0Ob1vSBz5L2QbZ0PUhHassxnwhOqLuKyVWnHr2OlOzc207boU5iEZPjp06mujL3IKFkGvbl2Bj7uEbBzDxXLbZs+OWzLo++ZgfaIHEozp+v89mlOpE8K0NlLVQYSCl5v+8Ztnc9gmRga00wt/4aJlaelPe1iyXUjv2wcq3FuweL8+im1GvcuFxj9qTgOW/5FnkhIYRgatXptDbeiKENnIcl2dx5H52p4PGrYuG48OvnHb75q3QgmU5u0Thllv/ZBns6Xb71a5tfP+8E7mQY80L1UxeZRWvDVzG0o9svSRxe7/g5KadjBFOWwXHh9kcsHtrg+J7tUlshuOV8k1svNPj6BTq3nG9SXeHvu7aEhzY43P6IHUgqJdQAqs0pLBx/A7o4Gjqw3V42d95PEWsGvtjbyaAg5VAsmqHzgysHhwROnS340ZUmJ830n1tt3uuyt9N/OpVQx1ATmcbccdcMOtaR2kpb3/oRSlEGvz5HTfib0w1uu0TPOpN6XJXgGxfr3LDMpCLqr/4W5F1SQmWhMbaAqVXLBh3b3vM7bBkgyDMCnDBJ8L0rIpy7YOjHuuwjgh+uMJib5wxhL5RQHrTUXURMPzqu1nbj7O55YgRT5I0pYMXJOv/4aTNQx29TreD2vzC45jSTSEgmKKE80Ikwu/bSQcd29z6NLZMjlKLsTB+v8a+fiXDZYh09j6epCbh4keDfrogws7Hw0I0SKgeNlQuoMqce+bcjE+zre2EEU3QUDbh4ocEdV+i0hDC2b0Yj3PEZk0sXGQVtuaaEyoGQghlVZw861ta3YYRSc5QJNRrf/pTBNR/XiBQ6TWUAhg5Xn6Zx+6UGk+vyU0MJNQRNFSeii6PBm25rJyknQDs6JGoqMi24M0/Q+P5VBvOmFe/RzWnWuHOFwbI5GlGTQHv6jYnhK4WgCZMJsRPZm3juyLGDqTeZUrlkWNNRXwm/uDaSVz0pHyojcMPZBtctI9A9lVBD0JMAnBPpTb515Njuzv1E3cxbWx2DaIjFTi7ylWl/l0SITKuu2PdUQnngSrhvncMb70lgDvD3x5yR6Ug2Nbj8FI2FM0qv9iAlPLbR5b71mQ76q04xubBVFHVJXCWUB9vb3MMy5cZy4dFX3ZIT6lBccvcah9feO9oRd+86ixd3aHzpbIOmAHPtglBav0IJkfA3nDxzbmmFpvjTFoebHrQGydTPpvddbn4ozVNvFqdvUuVQo4ieJNzzpM1zb+ceHpBIwconLF7YoXPtMp06nyMQ/KCEGiW8ugtWrbUCrVW+4R2HrW0u1y0z+dhx4aRDCVXmpCz4xTqHxzflNzews0/yvUfTnH6CxudON6iMFJYeJVQZs3Wvy8o1Lnu7Clur3AX+uMXljfdtvrJcY05z/lVrJVQZYjuS/9kg+c3LNk6Idev9PZk1yi9pNVhxqhZ4jXJQQpUduw7Aj9fa7Gj3b1Ll4QGofT7m3rnAb16xeWmnxk3nGcwIuDKeEsqDIIt5RYqw8Fc2fv+Ky/3rbawAJdySWTpfPDOzkOs9f3R5dru/utbuDpdvPJTm6tMMLmr1XwSqOJQHx0/WmDVh6JiyLuDcBcXfV6S9W/Jf6/zLVBUVfHW5wc0XZLYuq44Jbjlf56ZzDKqiQ38fwJJw7zqb9m7VOVwwuoBrl+ns75bkWlyltkJQE2Icx4ukJfCbMc1r9o6G969Rvmqtm3OTxmPv7RclVA6EgIk5FpAvNSIGXHWKkdlTOMd546sFf/dJncc2Cu5/9uiexGGghBoltDQJbjzH/67nQsD5J2qcOMNk5WqHbfvC2SZN1aHKHE2Dy0/KrFXuV6aBTKkX/PNlBitOLnyNclA5VFkzuU7w5eWFr1Wua3DZYp1FM3V+vNpmd0f+uVW4QkkH5MDESEwxdAEtpAtukeoq0kbkmKkojcri3LfInDfP4LNLtVDXKm+ZAN9dYRS0qksoQtndO+nbdj9Ob9ug43OAVfN9XODdMFKRHSklstfG6ckuttBNkrMvxZp2TvESEQL9IyfHV8ENZ0dYOL049zENuObjGq0zTO5+0uZgjwy0cnDhy/lIh67nvo2b7iroMsXGTTo4Hd6hYmv6GaQ+9Jeh3jPM5XykhBd2wNxmqPYZRyqUeBLe3AMfO87/bgoFV8qdxMGSlwlAi+noDREQ2d8fc9dTxDatQsrSW9EXMg90ccvwyQSZ8fKLW4JtzVGwUKJEH0A2tIiB0RhDeAS2jbaXqXz1h+CU2BDMMmLMhQ2EoaM1xPBqI+sHt1L50p2IMsh1S5ExJxSApmsYDRUIM/ufr3XvpurFO9ET7cOcsvJnTAoFIDTQG6KIqEdDt28/sRe+g9azc1jTVe6MWaEgs76mOS6KqMwulUj3UPXinRgdm4c5ZeXLmBYKQAqJURdBq84ulXQsYq/8CKP9xWFOWXmiul4Oo9dEEKaGm3DINq62YsvPsOPbsBrmg+ZvJH/EEdSkjrmWY2GkMottmJYg1TO4yanVTsQcNyu/P6IEUEINQIsZaDHvn8Toe45Y33Oen2cj234PbtrGOZQCKcjWlqxsWUL14i8Guk+pMOaLvJFAixiICu9OuL531mMd2j6MKQoPJdQIIYYYK2J3vj9MKQkXJZQiVJRQilBRQilCRQmlCBUllCJUChZKeo0FUeTEY1jWgBPK810vONV6RSN6tH7oExWDcNM5jBKC6IQ5w5eYECn8NRAaVR+5Dr16WiiXG+1IF5yeNDKVfadTLVZF/ZLr0KoCrlJRIhR1i1jF2ENlKYpQUUIpQkUJpQgVJZQiVJRQilBRQilCRQmlCBUllCJUlFCKUFFCKUJFCaUIlf8HPHJmyFIAVHkAAAAASUVORK5CYII=;fontSize=12;" vertex="1" parent="bCabj6HtADndmNLXBCn1-18">
          <mxGeometry x="60" y="36" width="40" height="40" as="geometry" />
        </mxCell>
        <mxCell id="bCabj6HtADndmNLXBCn1-23" value="" style="shape=image;verticalLabelPosition=bottom;labelBackgroundColor=default;verticalAlign=top;aspect=fixed;imageAspect=0;image=data:image/png,iVBORw0KGgoAAAANSUhEUgAAAOIAAADiCAYAAABTEBvXAAAACXBIWXMAABYlAAAWJQFJUiTwAAAgAElEQVR4nOy9d3wU953//5yZ7UXSqveChESVANE7GDDuvTu2E6dcnHbJ3eWb7+/uklxJ7pvem+PEsUPc424MBtNMRzQJEOq999X23Zn5/SHwGbQSEqwKsM/HQ/9oZnc+uzuv+Xw+7yqoqqoSJkyYCUWc6AGECRMmLMQwYSYFYSGGCTMJCAsxTJhJQFiIYcJMAsJCDBNmEhAWYpgwk4CwEMOEmQSEhRgmzCQgLMQwYSYBYSGGCTMJCAsxTJhJQFiIYcJMAsJCDBNmEhAWYpgwk4CwEMOEmQSEhRgmzCRAM9EDCDP++P1++uz9OJwunG43Xq+PgCwjywqiKKDVaNBoJIx6PRaLGavFgslkRBSEiR76NUtYiNcBXp+f1rZ2GptbaevooqOjm5aODrp7egcE6XLj9/uR/TKSJKLV6zBotVjMJqKjbcTGRBMXYyMxPo6UxDiSkxKwRUVO9Me6pggL8RolEAjQ2NxKaXk1Zyurqa6tp7qukabWVnp7+2GUpYo0Wi0pyfFkpqSQkZbC1OwMZuTlkJedhcViHqNPcf0ghItHXVu4PR5Ky6s5ePQkJafPcraymvrGFuRAIKTXiYy0Mi1nCtNzcygsmMnCwnwS4mJDeo3ribAQrxG8Ph+nzlawfdd+jp4ooayyhr5+x6hnvtEiaSTSkpOYM3s6KxYvYPmieSTEhwU5WsJCvMpRVZW6hibe2bKTXfsOUV5VQ7/DOe7j0Go0JCbEM3/uLO646QYWFRZgNBjGfRxXK2EhXsW4XG72Hiripdc3c+JUKd29fWM+A14Kg15PRnoK61Yt5b7bN5KZnjqh47laCAvxKqWzq5tNr73D6+99QHNLGwH/yPeAkqQhIj4Fa1wSFls8RmskGq0eSatHlQP4PG4CPjfO3m76O5rp62jG43KAKo/sAoJApNXCgnn5PPnovcyfMxutJmwXHI6wEK8yzi9Ff/SrZ9h76Ch99v4Rvc4QEU3atHmk5M0jJjULvdmKpNUhabRIogZBFFEFAUFVURUFRVVQAgECAS+yz0tvWxPNVSU0l5+ks65sRDOvVqclMz2VLzz2IDfdsAKz2XSlH/+aJSzEqwhFVSmvqOZfv/dTSs6U4/P7h3+BqCEpewZ5SzaSmjcHncmCpNUjabQIo3TOK3IA2e8j4PfR21JP6cGtVB/djd8z/H5UEAWibVF8+TOPcu8dG7GGXR1BuS6F6HC6qGtspqa2geraemobm+np6cPpcuFwe+h3ONBptZiMRsxmI1FWKzHRNnKy0pmSmUZOZjoJ8bFoxnm5VVpRzT9849+pb2pBVZShTxQkUvLymbPuQRKyZ6DVGxCl0I1VVRUUvx+XvZPjH75O2f4tBDyuYV9jMBn48qcf4fGH7g6LMQjXhRC9Xh+lFVXsO3iUPQeKOH22Aofr3I0zio8vAKogIAJxcTEsKixg1bJFLF0wh4S4WERx7EJ3a+sbefBzX6e1rWPY8yLiUym86VGy561Aaxj7paCiKHS31lL0znPUHP9o+O9TEPg/X/kcTzx8d9iiehHXpBBlWcbr81FX38Qbm7fz/vbdNDS1jNn1NFotc2dN585b1rN2xWKibZFoNVpEMTSxmU1t7dz3xFdobmkb4gwRjV5P1twVFG58CFtSZkiuOxp8bgdnD37AiQ9extnTNaRhR5I0/Pe/fp17bt2ATqcd51FOXq4pIXp9PhwOJ7v3F/Hi39+m6OTp4ZdwY0C0LYobVi3l/js2kpudhdVivqKZsqu7l89/4985eqIk+AmChNkWw8yVtzNz5e0YzNbLvtaVoioyzeUnOfLec7TVlKIMsYfV6nT8+gffYf3qpeFA8nNcE0L0en10dHWx58BR/vryG5SWV030kNBotdx8wwoevf9OsjPTsEVFjlqQTpeb//zxr3ntra3I8mD3hCBqiEpMJX/tfeQtWY+kmQQzjKrSUVfBsa0vUn/6EAGvO+hp8XGxbPrDj8mdkjm+45ukXNVClGWZjq5uDhUV86cXXuV0aWXQG3Yi0Wi13H7jGh6+9zZys7OIsFpG9LpAIMDLb77P//zsdzicgw0hgqjBlpzBvPUPkrNwDYIohXroV0RPSy1Ht7xAzYl9QxpyFs+fw29++B1iom3jO7hJyFUrRHu/g9NlFbz29la27vgIx2jCugQBjc6A1mhCpzei0RvQaPWIkoQoDvypqoIiyyiKjCwHCPh9+N0u/B4nPo8bdTSCFwSSEuJ47MG7Wb96KRkpyWi1w1sxT5w+y9f/v+9RU9842AAiikQlpDF3w0PkLVmPIEzO/O7OxkqOvf8CdSUHh5wZv/y5T/G1Lzx+3Tv8rzohKqpKS2sbH+zcx9/+/g41tfXI8qX3gYKkwWCNxBwZiynSRmRsMtbYZCJs8ZhssZitUWj0RkSdDq3OiBrw4/N68Ps9BLwuPPY++jpbsXc24+hqxdHbgbO3E2dvFz6vG2EEX6PeoGf5wnk8eM/tLJo3e8jZsbfPzn/+6Nds3rYbj9d70VERc1Q0czc8yMzVd4TULTEWtFaf4fA7z9JScTLonjE6xsYffvwfLJibPwGjmzxM7l/xInw+P6UVlbz61lbe/3A3XV09w56vCgI6vYmoxDRsSRnEpU8lNm0qtsR0DJbIYZ3aglaHQavDQMTAPxIhKbcAGHBuO3va6airoKO+nJ6WWrpb6+nvbhvSQAHg9XjZsfcQ1fWNPHb/nWxcu4KkxPhB5+346CD7Dx8PIkLQGPRkF64mb/nNk16EAAlTpjNr5e247d10N9UNsqb29fbz9HMvk5udRWTExBmaJhrpu9/97ncnehAjwe32cKDoJH/4y0ts27kXe79j2PN1JgspU/PJmb+WaUtvYtrSG0nJm4s1JgGt3jDqyJJPIogiepMVW3ImyXlzSMieQWRcGnqzFVkO4HU7hrbWqiq9vXZKy6twuT0kxMUQbfvfh0JrWwe/+8uLnC2vQrn4PUSRlKkFLLzzM5isV8e+SkDAGpeE4vPS2VRFwOu54LiqKnR195KVnsq0qVMmaJQTz1UhRIfTxa59h/nDcy9x6GgxPr9vyHMFSUfazEJmLLmJactuJrtwJZHxKWh0+jEZmyAMiDImJYuErOnYEtMxR0bjcztwO/qGfJ3T5aayto6u7l6SEuOJj41BEATe3rqTdz/YGfRBY7BGseSuLxCfOW1MPstYIYoS1thEupvrsHc1D3pIBWQZp8vNmuWLMBjG5nea7Ex6IfY7nGzbtY+nn3+Z4jNlKMrQGQDRKVOYtep2Zq28ncw5yzDbYhHGMNrlYrQ6A1EJqcRnTCMyIQ1R0tDX0YIiB1+uer0+Gppb6OruJSU5AUkUeP7lNyk+Uz54RhUEpi29kZkrb0ecZBbSkaAzmNGbrDSVn8TnuvAhoyoqbreHzIw08nKyJmiEE8uk3mS43B52fHSQ3z37IhXVtUOGT0k6PdnzV5M7/waScmah0RvHd6AXoTNZyMxfgi05g+Qpszm9/106as4GPdfpdLNr7yFkWSY7K53S8qqgZS2METbyV989OXyFl0lSbj5p0wspP7QN2Xfh/rfHbmfLh3u4cc3y6zLiZtIK0efzc+DICX775xeGFaHZFs/slbczZcEqImKTJ5UpPzI2GcvSOKKSMzi9+00qjuwKGvrlcrvZs/8IRSdLcPQH97lNW7SBiISrO8lWo9Exc9kt1JYcwH2REP0+P+VVNZRWVFEw8+paeoeCSSlEWZYpPlPGT3/3Z8oqq4cUYUz6VOauf4D0mQvRmSxXZIAZKySNlsTsmRgtEVhs8ZTsejOoT83t8eD2eIK8A0h6A9NX3jopP99oiU7PITV3LpVFu1CVC2f+zu4e9h08el0KcfJMH+dQgbaOLn7862c4U1Y5pAiTcmaz6PYnyZyzHL3ZOqlvUkEQiExII3/dvSy+47MYLVGjen3GjEVExCSN0ejGF0nSkLNgDWIQB77d7uTEqVI8nsFum2udSSdEr9fLb/60iSMnTg3pAkiZNo8Ft32a1Onz0I6RNTTUCIKAyWojd/F6Ftz6GNpRBGdnL1g9rkansSY1by7mqJhB/5flAG3tndTUNUzAqCaWSffrvv3+h7z2zpYh63AmZM9g3o0PkTQ1/+ozXAgCerOFnIXrmL/xEbSGSyfIag1mUqfNHYfBjR8avZH0mQuDHuvq6aO0onqcRzTxTCohtrZ38v2f/R6vJ7ifMDoli4J1D5I8bR6idPWZ8AcQ0JutTFt2M3M2PICkGz5BNjFnJhrdxFqBx4Lk3DlB/99rt1NeVTu+g5kETBohqqrKf/7o1/T22YMeN0fFMnPVHUyZu3xMM+HHC4PZSt6SDUxduBaG2d/GpedeE5/3YlJy84N+bqfLTWt7B1dZCPQVM2l+4Z17D7N5266gxzR6I9nzVpO3aP2kNsqMFmt0AnmLN5KUM3tIMcalT51ULplQYbBEYQ1igFIVBbvdQU/v0FFJ1yKT4hd2utz8v1/+PugxQdSQnJvPrFW3j0sNlvEmKXsmM5bdgjU2CfUiMRotUcSnTb2mDDWfJDIhJej/HU4X7ZcI6L/WmBS/8Dtbd1BT1xTkiEhEXCJ5CzcQmZg27uMaDwRRJHPOcqYt2Yg1Oh5Rp0fS6TFGRjN77d3oI66O4O7LITI2Oej/PT4vDsfwQf3XGhPu0Lf3O3j59XfxB0kf0uj1JOfNJbNgyQSMbPzQGU3MXnMn1ugEGs4eBSBt2jymzF2B9hLGnKsZc2R00P8HAjJe79CB/dciEy7Ebbv2U1lTP9hxLwhExacwfelNEx47Oh7oTQPGm7wlGyZ6KOOGpA3ufgoEAkFzMa9lJlSIHq+Xdz/YgStIaJdWbyQ5by7xmXkTMLIw44EgBReiLMt4vf6gq6RLvqcgjHvh51AwoSMuLa+ivLIGOXBRILQgYLHFkbvwhmvSYhhmgKHq/vTZ+9m59yDNre2jfk9RFDDo9Wi1WswmIxERFmxRESTExhIVFYFmkvqfJ1SIO3YfGGimeRGSVkdizmxi03ImYFRhxgtPf3AXRWdXD6++9f7lv7EgoNfriLRaiIm2kRAXQ3pKMpnpKUzJSCcvJ5O4uJhJJcoJE2Jfn50jJ0pwugZnImh0RnLmrZp0JQLDhBaXfYxcFKqK1+Ol3eOlvaOL0rJKAIxmIxkpyUzPzSZ/Rh4LCwvIy86cFEvZCRtBWVUtre2dQTPRI+OSSZgyY2IGFmbc8LiCR1GNFW6nm7PlVZwtr2L3vsPM+OggiwrzufmGlUzJTJ/QYJEJE+Lp0gr6nYNrkYoaDenT51+TzvswF2KKHJyBMV509/Sy98ARSk6f5XDRSW5av4rbb7oBi2li7rsJsYSoqsqpsgrs/UGEKGlInj5vAkYVZryZtmgDetPEllDss/fz0cEifvXHv/Kd//kl1TX1EzKOCZkRu7p7aGpuDWqe1hvMxKZPnYBRhRlv4rKmserhb3B6/3v0tjYMWxhsZAx0O/Z73ch+H4yiAVFLazvvbttBQ1MLX3jiAW5YufQKxzI6JkSIzW0dAyXyg0TYx2fkog8vS68LJI2WzLnLiJuSh9/nHVG19EuiqCiKjM/nwdnVTndrDe01ZXTWV+BxDh9I7vX4OHKihJ5f9NHb18/dt24Yt33jhAixrb0Dpzt4fZbo1LDL4npC0mjHpAyIqqoomQEy/IsJ+Lw4eztpKjtOxeHtdDXXDunDVBWFypp6fvn087g9Xh6597ZxEeOECLGlrROXO3hTksirvFJZmMmBIAhIGi2SRovOaMYYYcOWnEnu4vXUFe/nxLZX6W1rClpVT1UU6hqbeeavr2Axm7jz5nVjPt4JEWJHR9cQFctEbAnp4z6eqxVFkXH399DbUk93az32jmZcvV04+zpw9/fi97jxup2o6oV7JYMpAr3ZitESiSk6nqi4ZCLiU4lJzSIyNgWNVjdBn2jsEAQBjVaHRhvNtKU3kz57MUc3b6LswAfBO1WpKrUNTfzhuZewRUWwamnw0h6hYkKE6HR7CPiDPIkEFUt03ASMaHKjKsrAUivgp72+jNbKElprSumor8DV2zl83/ogOH0dOHs7gh7TmazEpE4hJbeA9OnzsaVMQaM3IAjiNZOULYgi5shYVj70jyRNmc1Hr/wGryNIcIGqUlpexbMvvE5magoZ6cHzJ0PBhAjR4/Miy4OFKAC66yDT4lKoqooiB5D9Ptz2XhrOHqHhTBEt5SV4x9gJ7nP101J+kpbykxS9+zwmWxzpMxeQPW8Vcem5aA0mNBrtsOU9riamLroBa2wS2/78X/R3tQ02GKkqh4pO8Pwrb/KP//AEVsulC35dDhMjRI+XQJCehoIoIWmvjvKIY4Ec8OP3unH1ddF49jj1JQdorjyF7Atu2BoPXD0dnN27mbN7N2NLzGDqohvInrsSsy3umgm6SMyewU1f+m+2/Pbb9He0Ahfem26Ph517D1Iwazq3rF+NJIXe/T4hQvT5/MhBfEaSVnfNloUYElUl4PPgtPfQVV9JTckB6k8fxtPfM+ol51jT01rH4bf+zIltr5K/9m7yb7hnwh3yoSI2OZu1j3+T7X/+Ps7uwVkf1XWNbN3xEfkzcslMD71BcUKEqNFICIIwqFLXUF2TrkVUVcXvcWLvaKG1+hRVR/fQXnd2UP/AK76OAIgiiAIoKsIIuitfCp+rn+Pv/w2t3sCcDQ9e+SAnCUnZs1lwy6fY//en8bn6Lzyoqhw6eoJ9h4+TkpR4ydbro2VChKjT6ZAkicBFkQ9yIIAs+5GGSBi9FlBVFZ/XRW9zHU3lJ6g+vofOhqoh/VqXfD9JBJ0WQa8FvRZRpwWdZqAEozTwp2o0qBoR/DKCPwCKMhBsLyuovgD4/CheH7h94A8gjGAilhWZyiM7rikhCqJIzvy1tNdVcOaj9wa5Njq7eth/+BhLF8whKyO0NZQmRIgGnQ5JEgkEmQD9bheSJXL8BzUOyAE/3U01NJ09RvXJj2ivLR+1AFVJBIsB0WoCqwnJYkKOMKFEGFGsZpQIEwGzAUGvRdBoECUR5SK7iugP4AvIaLx+FIcbTb8Lsc+JrrsfodeBYneh2J0IDi8MUXEdVcDnu/bKWWj0RmatvJ2WimJ6WmoHHS86UcKp0grSU1NCulecECGazSZ0Gg1eBv+Qzt4uDNeYEFVVxdHbTtOpI1Qd30Nj+QmUUZSBULUaiI1AjLIi2CwE4iLwxdlQYyORrUakiyyYn7w9gi1EFa0GjVYDRj1ilAXl3HmKqhJwe9F29CG19yC19KA0daC2dSP4BldRiIwLXoXtakYQBKzxyUxbupGDbzwzqGNVW0cXxWfKWLpwLjHRoauwNyFCjI2OwqDX0++4MPtCUAX6OpuJSb12eqn7fR4aS49RU7yPhuKDuOzdI3qdKgkQZUVIjEZMisGfHI0nNgrFZrngSRzK1GlFEBBNBuQMA3JGAl6fH83BUjS9DvBd6PQWRIHYtGszOF+rM5A6oxDbwa10N9VceFBVOVFyhobm1qtfiPGxMRiNwcoEKvS1NY77eMaK3tZ6Sg9sob7kIF3NtSMKalaNOoTkWDRp8QSSovEmRqPGWEEUEQit8C6FoNMiefxwcU0hrm0hCoKAxRZP+uzFg4UInK2qpbm1jfwZeSFrhzAhQoyLG0qI0NlQOc6jCT2KIlNXcoiz+zfTcKYI2eflUu5v1ahHTI+H3FQCqXF446MQdNoBq+cEoXp8SG09KL7By2hR0hKffu0G6OsMZpKzZ3Pa8DZ+z4Urt/5+B7V1TThd7pA5+CdEiBkpSVjMwT9AR10ZiuxHvEotpx5HH6X7NlN+ZAfdTdWXzIlTjXqEjASYlo4/LQ4lNgLlnGl8or2ImpYu6O1HkAePxJaYgdl27YYjipKEJTqeqMQ0OmrPXnhQVamua8Bu77+6hRgXG01ifCxajQb/RVY5l72X3rYGopOvvn1iZ305JTvfoO70Ydz24R3yqk6DkBaPOmcqgbRYfDYLUoh9U1eKVN+BancFPZY5exGiNLnGG2r0ZivRKVmDhQg0t7bT7wr+3VwOE+TQ1zA1O5O9B4vos1/oOFUUP41njl51QmwsPcrxbS/TWnkqeDT/OVRBAJsFdcE05GlpKNFWFK1mXPd+I8LuRtPYgewJvqzOnLNs3Ic03uj0JiJjg+dKtrZ34ApSgfBymbB4shm5OUGnddkfoKb4wFXTH09VZKqKdnHorT/RXH5iWBGi18DcHOQHVuNdNI1Agu3jZehkQ9PQhtrRG3RZGpWYTnRS5vgPapyRdHrMUcGX3339/Xh9oevPMWF3QWHBTKKjImlsbr3wgCrT295Ad1M1ManZEzO4ERLweyk7sI3iD1+lr715kM/pAiLMKOsL8c9IJ2DQDfL9TSZkfwBjTQtKT3/Q2TB30fprflkKA4XMdHrTQKbJRROD0+0lEMSafNnXCtk7jZJoWyT5M6dhNAy2nvpcTiqP7JyAUY0cv8/Dmd3vcPS95+htaxhWhEpmIu7P3EhgTjaqUT+pRQigq29HbehACJIzKumNTF9+8wSMavwRBAFRo0EMUoDY6wmeyne5TJgQBUFgxeJ5QZenAa+b2pL9AwaPSUjA76Ns/1aObn0B5zCJuaog4FszB/eTGxHibShjkD4TakS/jK6yGVqCf/e5hasxWqLGeVQTx0Bu6ODfV5IkBCF0O/sJvTOWL1lAfHxs8F7qfd1UFO2YdKlAfp+XisMfUrT5eTzDPChUgwH/A6tR1hciTaIeC5ektgW1silojKkgaZi24tbrJlVNVRUUvw+CrHYMRh0aTehWNhP6jZpNJm7bsAajafDy1Ou0U3FkB47ergkYWXD8Pi81x/Zw+J1ncfcFD1VTJQFio/A9uhb/7KxxHuGVobg8GCoaUZuDf+eZsxYSm3J1faYrIeD343IEr4hgNhhD2jNjwh9tt21cQ2y0bfCsqKrY25o4u38zymWmCIUSOeCn6ewxDr3zLK6e4PVe0IiQnkDggVUEshJDvhdUfQEEtxfRPwbfh6JgqGwicKY+aCie1mAm/4b7rqsKCrLPg6O3Leix+JjooPaNy2XChZicmMBNa1eiDbJ88zj7qCneR0dd+YQuURVFpqOunKPvb8LR2RL0HFUroWYmId+6BG9yTMhEKMvyQIpSYwe6o+Xodp5EPF6F1N47qkrWwyGqKmJ7H2JJHWJ3/6DjqiCQNW8lMWnZ182yFMDrdtDX1hD0WEJ8LBZT6OorTQob9GP338GWD/dQ39g86FhPSz1n9rxDRGwSxojQRbuPFFVVsbc3cXL7y7RXnwl+jlZCyEpCWVeIN9F2xSKUVRXJ5UVjd6Jv70Eta0Iob0R0DWTvazQiamYSyk0LUJOuvJGL4vJiPFWDUtEQ1F1hioxhxpKN6AxjUzhpUqKqePr76AoS9A2QmpKEJYSFpCbF4y01JYmH77s96NNW9npoKDtO5ZEdwzvLxwiPo49Tu9+i+vjeoMdVrQRTkpHXzsV3hTOh7A8gdPRhKmvAuO800ht7Ef7+EeKJSgTXJ0poBBRobEd//MoD5EV/AG1FE8qxCgTf4CWvqNWSt3gDtpTM62o2DAT89LQ2YA+yApI0GqZmZRBpDV29nkkxIwLcf8dNbNm2ixOnBsf1Obs7OHtoG9bYJNJmLkQap8aSiixTWbSTM3vfC7o0ViURIS0e/8rZyKlxA3VhRomoquDwoOnsHUjErW2FulYUh2f4tClvAKmrf2D2vFzxKwpCcxfS4VLoHdy5GSAhcwZ5C264ZopEjRSPo5eG04eDLv8T42JJTUlErw9dIeZJ84iLjork61/8NDZbsOx8ha6GKkp2v0VHXdng5qZjREddGSe2v4ocpCSEKggIidEElsxATosfvQgVFXqd6M7UYfioGHHzYZQPjiCcqkHod18yd1HQSqjWy9+jiKqKpteJ7kgZal3wXvUmWxzTV9xKZHzKNVNceCQoikxvSz2N5SeCHp89I5fUpISQXnPSCBFgxZIFPHhXcD+VqgRorSyhZOcbdDVWjbkYvc5+it7/65DGGSEmAmFhHnJOCmhG4SdUFNROO9oTFZg+PAYfFKHsPwNNnUGXhkERRUiMxjcr47JnQ8XlQXP4LOrp4AnLkk5PzrxVpOYVIOmuH0spgM/loLxoB54g1RT0Oh1zZ88gKSE+pNecNEtTAFEU+dR9t1NaXsmuvYcGHQ943dSVHESQJOauv5/olClj8qRWVZVTu9+i4VRR8OMWA2L+FNwzMkE/wrxJRUFs7UFb04JU24bS3Inc6xxVKzJVEhHioiA9AWV6GoHMy+uiJHj9aA+WohaVIXiD1M4RBJJzC5i68IYJ7eo7EShygKbyk9Sd2B/0+JSsdGZOn4ophBZTmGRCBEhMiOOpzzxCa3snZ8urBh33e5zUntgHikLBuvuISctGFEMbudJWW8rp3W8FjR9VtRJiZhKegmwwX9qPJKsquvp2tOWNiPXtyO09KP0DRqeRPkJkqxExIwEpIxFfQhSB2CiIukyLnaIgHS5DOHQWwRW8CltMWjYzlt9KbMoUBGFSLZrGGJX+zlZObn81aC9FSaNh6YJ5TJ8a+hS9SSdEURSZM2s6T33mEf77J7+hvWNwlIff46SmeB8eVz+FNz5MfPYMpBBlAyhygOJtr+LsCx5dIsRFIS/IIxAbMWwOoayqaJs60RVXI9YNpBQpHv+IxYcooqbEwNRUxNQ4AtFWvNHW0S2Dg43pSDmafSXgCG6BNtniyFt8I6nT5iFeg12hhiPg9XBsy4u01Qw2GAJMzcpg6cI52KJCH2sbciEqioIsy2i1l1/qQqfTsmb5Irp7evnF08/R0zP46RTwuGkuPYrH0cesNXeTPW8FWt2VRzrUnTpM09njwQMIrEaUOVMIZCYMuzdTW3swnqhAqmpB6ewFb2DEAlTMBshMRJqWTiDRhs9mRTSFYI+mKOj3nUbafxqGyLrXGszkzFtFzvzV6IzXkc+QgbjSo5rMNSsAACAASURBVJs3UXVsV9DYUpPRyJpliygsmIV4GdbxS3FFQmzv6OTEqVJKSitobGqlpa0Dv9+HApiNRhLiY5malUHB7GnMzJtKhNUy4ve2mE3cvnEtbq+X3/z5bzjsg83rshygo66Cw28/Q1dDOXNvfBjTFTj9/R43xTv/jsc9OLoEjQgp8QQKpg6ZzKt22jGcqEQsa0DpsqN6fCMWoBptRZiWAXmpBGIj8FlNoJFCYk0T/TLSjuOIx8oR+oPPhJLeQNbc5cxedQemiOtrX4gc4MjmTZz+6B38nuAPqYJZ07hx3QoiI8bGjTNqIQYCMkeOF/PWlg85euIUffZ+3G4PPp8fr9//8UwiiCI6nQaDTo/JZCQ9JYl1q5Zxy4ZVJCXEX9LIIggCtqhI7rttI7I/wO+fewnHRXVQAVBlnF3tlO7dTFvlaQrW3ceUwlWX5XyuPLqLroaqoL4j0WrCvyAXJYjLQOxzIp2sQlNSg9JlR/H6R2aEEUWIj0Kek42ck4wQZUU26C7LHzkUsteHfksRQkk1DLEnlCQN6TPmU3jjQ1jjk68rV4XP6+bwm3/k7KHt+J1BHsBAWkoSd968npl5OWP23QjqKGpSnDlbwTObXmPf4aP02u14vf4Rx4BKkojeYCArPZXPPHwPN65dPmQlt0+iqiq9fXZefWsLf3j+Rbq6eof5NBJ6k5nEnFnMu/EhErNnjfSjEfB7ee9X/5fmipODhKhqJZidjffOpRfs0QS3F/FUDbojZSidfQNL0JF8HxoRNTEGeWEeSnYKWAygkVBC/SP3OtBvPQpldQieISqLiyLJUwtYfv+XiE7Juq6MM72t9ex77Xc0V5wk4Am+UrBYzDx49y18/QtPYDaPXRu6EQnR5/Pxxnvb+cPzL1FX34x8JdkQgoBer+Oum9fztS88NmJ/jMvt4a3N2/nVM3+luSV4RPzHiCJanZHkvHwK1t5Hcl7BJW+w2uID7HnpFzi7gry3zYrzsfVICQPLXlFWUOva0O4uRqhrHWjuMpLiwdKAAAPLZqLmpaLqtQOz4higVjVj2noUtbVzICQuGKJIQtZ0Vj74NWLSxu5pP9nw+7yc3beFk9tfxtHdNqRPWqvTcuOa5Xz7X75MfOzYLtcvKcR+h5Onn3+ZZ196Peg+7UpYvng+P/jOv5AywigFRVHYte8QP/nts5wuLR/RawRJgy0xnbylG8metwJrdOKgc1RV5cO//ICqY7tQLoqiUbUS8pypBO46V7Ws14Fu/xmEojIEz8iKB6mCAInRuNfOQZ6ejnYsYzYDMtojZYh7ihH6gizlzyOKxGdOY90T3yIyIbSdjSYrfp+H+uKDnPjgJToah+/AJUkaFs8v4Mf/8X9ISgyt8z4Ywwqxt8/OM5te4y8vvIbDOcIajuefqiNcsi5fMp8ffueb5/aNI7tEVU09v3j6ebbv2T9Q0m6ky2O9gejkTFKnFZIyNR9bciZ6o4Xu5lp2bfpx0PLqgtmA91PrEWIjEc82IO45gdA+2Ip7MaogDBh4oiPwrCpAmZ01Jp1mP0ZREHsc6D46hVpcOfRSFAZmwszprHviW5hjBj+Yrm4G7gVVVVFVBdnnpae1nvqSg1Qd/4i+9uZB7dYuRqfVsnBeAd/7t6+TkZYyHoMeWogut5tX33yfXzz9PN09Q+/LJEmD0ajHoNeh1WqxWMwoioLL6cbj8+B2efH4fMOKZeMNK/nhd785Kqtqv8PJy29s5sXX36W+qZmAzz/qytiSpMEUHY8oSTi62wfFlKqCAJmJKOsLEfYUI5Q1XHIJqgoCgk6DGm0lsHg6vnlTx7ZUhqKC24u2ohlpXwlqc9clx6jRG5ix7BZMUdFjN64JQlVV/F4PHkcffe2N9LY2DPiER/iwNptNLFtYyH/9f18jIS52jEf7vwQVYkCW2b3vCP/z899TWV0b/IWiSGx0FLnZWWxYvYzF8+eQkZaCwaBHOWdgKT59lh0fHWLfoaM0tbXhcQ3dDffb//IVHn/wzlHftKVllTz911c4WHSC9s5u5KH6+V0GqiBAaixqZx+i+9LLUNWgRYi0EJiTg29BLmKQEiChQlRVVF8ATUsX0pFy1DO1wcPVwowMQSA+Npo7bl7HVz//GNYRGBJDevlgQqxraOKnv32Wt97fHvRFBr2e6Xk5fObhe9iwdjl63dARGLKiUFpeyaZX3mb77v10dgcvRW+JsPDKMz9nRu7oG5v4/H52fnSI195+n9KKKlraOkMqyEui0yBEWVBy0/Cdj7oZI8OHqILq8yN129FUNKEeKUPoCl5XJczIsERYmJqRzmceuZdbb1wzIUarQUL0en28s3UH3/7BL3EF2ReajAbWLF/M17/4aaZkpo24LVVPbx8vvrGZTa+8SXNre1Ax3nHzen76X9+67KWc1+tj594DvL1lF1W1dbS2dQwq6R9SNCJChBk1Kwlf4VSU1LgrCkG7FILXh9DRh7auHYqroLFzVEHjYS7EajGTmpLEqqULeeLBu0hMmLimOoOEWFvfyPd++ju27do36GRJo2HD6mX8y5efJCsjbdRPDrvdwXMvvcFzL79OZ9fgUoQGk5F3/vpbpmZfWaUwvz/A0eLT7D94lJOnz9LY0kZHVxf2fmdIat+ogoBgMaCmxqHMnoKSm4ocijC0IVAcbvSdfUj17ainagdSpsICvCzOb6nSU5MpLJjFxnUrKZiRN+ElLy+IrAkEAlTW1HGwKHhC5PTcbJ546G4y0i4vUTQiwsI9t22goqaWrTv34vVcaBzxuNy8tWUH//ylJ0f93p9Eq9WwuLCAhXNn09reQfGZMkrLq6murae1rYPO7l66e3pxOJ3I8ujyGlWdBiExGmZk4JueMWbLUNUXQOyyo+/ohcYO1OoW1JbusAAvA61OR2x0FMkJcaSlppA/PZdFhflMzc5Cp5sc7f8uEGK/w8WR46cGtdSGgaDXO2+6gRl5OVf09EhOSuDmdaspPl1Gbf3g7sB7DhTxT099JiTrdFEUSU5MIDkxgQ2rl9PbZ6e2oYnmlnZa2to5WHSCQ8eKg4fOXYQqCAhRZsTcdDyzM1DTE0AjhbSLk+D1Q68DbVcfYlsvNHRAQzs4PSOKWZUkDXGx0URGWK4b5/wnERDQaTVotFr0Oi1Wi5moyAhiY6JJT0liSmYqOVkZREVGTLrv5wIh2vv7KTpeEvTE6blTKJwzKySNGRfPLyA1JYm6xuZBUQ31DU3YHY6QFuaBAVFG26KItkUxZ9Z0yqtrqaiuG1lcp0ZESIpBXZCHJzcNIkIU6hSQweFB6ulH12mHjj6Urj6Ezl7UXkfQ3hNDER8bw9JF81iyYC6x0VGT7kYbHwbim3XagRhnq9VMtC0Si9k84UvPS/GxEFVVxW7vp6ymdvBZgsD8uflkhsi5GRUZQXpKEkd1WtwXLU8DgQA9PX0hF+J53B4Ph48V8/Ib77Hv0LGRRQspgF9G025HVuogyoo/wjTQUMagI6DTDLs8Ff0BFLdvoBW2y4vY50DT50KwO6HfDXYnak8/ODwI5x5MI5VRVGQEC+bls3b5YpYunEtqcuKkv+nCDOZjIQYCARpb2nH0D16mRVjNTJ2SEdIUkMgI67mS5Rc50QG3N3iWwJXS3dPL+9v38Opb71NaXjXy/naKAq3dBLr6kEwGBLMBnVGPqtMgabWoOg2qQYtyUaUAQVGQvH5Unx/8ARR/ALx+VJcX1eVB9fqC9h8cCVaLmYWFBdywYgnz58wiIy0lpFXFwowvHwvRH5BpbesIalWMjYkmJjpqxK6KkeByuYMaSgTAqA+tBVJRVOoaGtn06tts2fERza1tqMroBSD4ZehzQp+T8yMP8Ilwtou+H1VVUYYICL+shaMgEGmNYNWy+axZvoRZ03JIS0nCYLi+ijtdi3wsRFmWhwxli7RYMBlDVyzH4/HS2NwadOYTJImY6NCVIvD7AxwrOc3v//wiR4tPYQ9x4DowIDS/DISuX97F5GRnsm7lEpYtKiQrLYX4+Fh0V1AFIczk4oI94lBLQpPJENKnbklpGU2twdNP0lOSMJtCYwzx+nxs27WfXz79PNV1DQT8Q4eAGUwGYiIjae3oGt+onGGIj4th2aJC1ixfzIzcKcRE24iMsIZ0ZRJmcnCB1XRIS5tKyPxXHq+Xt7fspL5hcJ8LGGjpHYobzevz8ZcX/s4zm16jo6t7WEd+WkoyX/38p5g/ZxZ1DS18sOsjPtxzkLb2Ibo+jRGCKJKRmsyiefksWTCP2TNysUVFYDGbJ42/K8zY8LEQxXMJu8HodzhxuocO2B4N23fvY9+hIlyeIO8nCNy8bs0VX8Pl9vAfP/w172z5EJd7mH4ZgsCyhfP46ucfY86s6ej0OtJTk1kwdxb/9NSTlFfVsOdAEUXHiyktr8bhvLS/cTRIGg1JCXHkz8ilsGA2c/Onk5aciNFoRK/TotForlM3xPXHx0KUNBoS44LH2vXa+3G6RpiPOAz7Dx/jT399jeq6xqAzVHZmOgvmjry8RTDaO7v40j9/l2Mlp4eNmtEb9Nx/x8187lP3kZqc9HFlLkmSMJtNmM0mFtnmsGDubBRFwePxUlFTx9mKGqpq66iubaSlrZ2Ozm767I4hqxYIoojNFklMVBRJ8bFkpKeQmZZC9pQM8qZkEm2LRBTFj//Cwrs++ViIWo1myEzk5rYO2ju6URTlspaNKnDkWDE/+e2zHC8J3toMQeCfv/TkZSfPqqpK8ZlyvvjP3x6+lIYgkBQfyxeeeIj77rgJ8zAVm0VBQDzX8Ean01FYMIvCgsEPCr/fj8frw+vz4fF4EQQBs8mIIAhjVvUrzLXFx0LUaCSSk+KIjomi+6ICTQG/n1NnK2jr6Lysmv81tQ385cXXOXoieNQOgsDKJfPZeMOKUb83DAhh174j/N//+jGdXcFbagNIGon86Xl85fOPs3rZgpAZPbRaLVqtFivXVy3QMKHjgjsxwmKmYHpe0BMPHDlGeVUtymU0fzlbUU3JmbIhjycnxPPtb37lspZlTpeb19/9gG/914+GFqEwYBVdu3wx//mtr7J2xaKw5THMpOICq2mE1crCeQXs2n9kkGuhpq6RnXsPMX1qNvFxo6toJcsy/iFcAvFxMXznm18hKy11lEMfyHF8+Y3NPP38y0OX8xAEbFERbFy7kqc+8zBpKZfXuGUsUVQVv9+P1+vD7/fj9wfwBwLIsoyiKAOBAecCEERRQBAERFFEo9Gg1UhoNBp0Oi16nR6tNmzguRq5QIgWs4mFc2eTGB9LS+vgnnlbtu9m0bwCbli5ZFTm9JTkRLIz0+no6EI+L3BBIC05kS9/9lFWL1s4qr2hqqq0tLXz3Etv8spbm4OW5IcBQ0lqUgL33Hojn37knkmzXwvIMg6HE7u9H7vThb2/n5bWDuoam+no7KKzq4funl56+x14PF78/gBurxdRGKiOoNVoMBoNREVYibZFERtjIzEulrTUZBLjY4m0WrBazFitFiwWM1J49p/0DPIjpp6ryL3p1bcGzYqt7Z289Ma7ZKWnkJuTNeLl3fTcbO6+dcNARE1LKwICKUkJPPbgXWxYs2xUMZKKolBb38ifX/g772zZMWQGviCKTJuaxafuu5N779g44VEoPp+P9s5u2jq6aGnroKyyhtLySiqr62hp7xiUmzkUfQxfccBoNpKSEE/ulEym5eWQm51FYnwMCXExxMVEn4vvDTPZGJShL8sK+w4d49//52fUNTQNeoEkafjMI/fw+cceIDbGNuJlkNfr43RZBadLKxBEkfkFM8nOykA7RB+JYCiKQnl1Lc88/ypbPtwzpF9PEAXmF8zi8088yLqVSydsqaYoCi1t7dQ1NFNd18jx4tOcPH2W2obmYaN8QolWpyM7M425s2cwd/b0AfdJagrxcTHhJewkImjxqI6ubv606TWeffHvQZ/UEREWvvq5x3jonltDFo52KWRZobyymmc2vcbWHXuGrLMqiCKrlizgS599hAVz88dlbBfj8Xqpqq2ntKyKw8dKOFZ8mpq6xiurkB4CJI1EbnYWC+bMpnDOLGbkTiEjLQXdMMW/wowPQYWoqionT5/lx7/+E3sPHQ3qfE9KjOdrn3+cu25dP2wVt1AgyzKlFdX86a+vsnXX3qBFrWAgKOHmdSt56slHx6SZ5KVwezycrajm4JETHDp2kqLi0yGvjh4SBIGY6CjmF8xi/pzZLJg3m+m52WP+O4YZmiELDHu8XjZv283Pn/4L9fXB40LTU5N56slHuO+Om8bMIHBehE8/9xLb9uzH7QwesmYwGbjv1o08+ei9ZKaP3gJ7JXi8Ps6UVfDRwaMcKjrB8dOlQ45zUiEIWMwm5syazorF81m2uJC87Mwr6m0Z5vIYtuR+R1c3z730Bn977e0hLZOpKUl89tH7ePie20IemDwgwip++6cX2LHv4JAFiiMirHzq/jv51H23kxAfO257H1VVqWtoYuuOvezce5BTZytGVP/mYgRRJCrSSmJcHAnxMdgiI4iMiCDCYsZg0A+4J7QaVHWghmsgEMDl8dLf76DP3k9Pbx+tHZ20tHficDiHbKoy9AAEoqKsFEyfxtqVS1i/eilJiQmXlzMZ5rK4ZBOa6vpGfvvMJt75YDfeIVpXxcfFcP+dt/D5x+4fVdn8S1Hf2MwPfvlHtu/ZP6RVMTIygicfvY+H7rplVMajK8Xe72DvwaO8s3UHR46XDFk4ORiSNFA/Jzc7k9zsKUzJTCM+1jYgvggLZqMRk9GIwTDgqhAlEc258hcBWR7wy/oDeDxeXG43Lpeb3v5++voctHV0UVVbR3llDeXVtfT29Y9YmIIokhgXy6LCAm6/+QYWzyvANEwIYJjQcUkhKorCmbMV/Pzp59mz7zC+Iax9kZERbFi9nC9++kGmZKZf8cBcbjevv7uN//7Zb4ecCW22SD736APcd+dGYqPHR4SKolBZW88rb77Pjj0HaGxqGfI7uQBBIDY6amBPNnc2uTlZxEXbiI6OIioiIiSrCRXwer309dnp7Omls6tnwGB0vJgjJ07RP8Jiy3qDjozUFG5cu5L779hIanJi2MI6xoyoP2IgEKCktJyf/OZZDhQdHzJxVm/QU5g/k888ei9rly++ojCyru5efvybP/Hi398JejzaFsUXHn+Qe267kZhxqlrmdLnZufcQf3v1LU6XVYw423/WjFw23rCKxYX5JMTGEG2LwnQuKHwsUVUVh9NFV3cvbR2d7Dt8jPe376aiqnZEr4+KjKBg1jSeeOheli6YE66JM4aMuGNwICBTfKaMH/zqjxQdL0YOBC8LIWkk0lOSuWXDGh67/45Rh8Odp7fPzm///Deefu7lQcdiYmx87rEHuf/2G7FFRY7LDd3Y3MqfNr3Glh176OjsRpYvURZDEFi2cC4P3X07s6bnEBMdhcVsnrCZRVVV7P0Ourp7OHbyDC++8S5HT56+5HJa0mhIio/jto1refLRe4mx2UbcPi/MyBlV625Zlqmoqef7P/kt+4uOE/AP4Rf7hDXu0w/fzcolC0fluD9/rQNFJ/jav36Prs7/DeaOjbHxhccf5L47biIywjrmN7bfH2DH3gP86o+bqKytG7ajFQCCwII5s/j0w/cyf85MbFGRk84K6fX56OzqYf/h4zz38hucGiYg/zxms5HcnCl888ufZfH8OeGlaogZlRBhYI/U2t7Jf/zoV3y45+CwESKSpMEWZWXd6mU8+fC95EzJGNUP6PZ42HPgCE//5WWq6hvIzcrgsQfuYs2KxZiMxjF/Mje3tvPDX/2RD3btw+32XNLokZgQxxcef4hbNqwiOipyUoeTqQykt7V3dPH6u9v4y8uv0xWkH8knEUQRq8XEA3cN9JQPG3JCx6iFeB6Px8vPfv8Xnv3ba5c0VgiiSEJsDHfddiOP3nvbiFt1w8CSSpYHMhAEQUCURMQxVqDb42XTK2/xy2f+isPhuGTpRUmj4bYNq/nyZx8lKyPtqivwGwjInC4r59d/3MSOvQeH3HacRxBFsjPT+f6/f4OFExS9dK1x2UI8z9tbtvNv3/8F9n7HiMz3iQlx3HXLBh648yZSkhImRV2WgTQjBbfHw1ubP+TXf/4bLcNl+Z9DEEUy01J46slHuHndqmGz/a8G7P0OXntrC3964TWaW9svuQIwmAw8/sBdPPXph4mwTky/jYEW3efbdcNApTPhYx+oIAgTen+dn0AuxRULEaC2vol///7POFJ86tJ7qHNERFi5cc1y7rp1A9NysjCZjOh0ujGf7c6jqioBWcbn9dHa3smWD/fwyjtbqG8Y3I/jYs4v0dauWMI/PP4geVOnTPjDJFSoqsrxkjP87tkXOXD4GA6Xe9gHrCRpyJ+RyzeeepL5c2di0OvH7LuQZRnfuXxNWZZxOF3UNbTQ3dOD0+2mv99BIBDAoNdjNpuxmM3ExdpISUzAZDKi0UhotRp0Wu2YJ4YHAgH6+h109/Zh0OmItkViNBiGvG5IhAjg8fl47oW/s+nVt2nv6Bp5OXtBIH/6VDasWcGKpQtIjIvFaDRgNOhDbuRQFAWfz4/b46HP3s+p0go+3LOf3fuPDJ1YfNFY9XotORnpPHTPbdxx87qQNOWZjPT22Xnp9fd47Z0tI8oWiYmx8eBdt/LIvbeRGB/3cTGuK8Xv9+Nwuuh3OKiqaeRo8SlOlpRSWVtPa3vniIIV9AYdiQnx5GZlMHf2DArnzCIlKQGrxYzFbAr5VsLj8bJ7/yF+/Js/U1FVi8Vs5ub1q/iHJx4csq9oyIQI/9um+5nnX+VA0XE6u3tHVaxXEEXyZ+axuHAOBTOnk5mRjNVkwnBOmHqdbsRL2fOi83i9eDxe3B4PnT29lFXUcKz4NEdOFNPYFLzIcTAkSUN8XDRLF87jiQfuZPbMaSP+XFcrqqpSdKyYP/7tNYqOl9Dd2zfs7GgwGbh9ww1844tPXFH3XUVRcbpcdHR2cbaihp17D7L30NERC+9SSJKGjLRkVi5dwA0rFpORlkJcTDRGo+GK39vr9bHlw4/41+/99II0PaPBwP133sy/fOWzWMyDM5ZCKsTzOJ0utu85wJvvfcCZ8io6u3pHnQIkiAK2yEhyszPJTE8lMy2FlKQEbFERGI1GdBoJQZLQiOLAHg8VVVbwyzI+nx+ny0V7Rzd1jc3UNzZRXddIbWPT6IOxz5XamJk3lXtuu5Eb1y4PafuBq4HePjsvvP4e723ZQVl17bCzY0pyIv/4hce5746bRn0dRVGw9zuorm/k0JETvL99N6WV1fh9Y5e7qdVpmV8wi1s3rKFw7izSk5Mu2xrs8XjZsuMj/u3//Txo1s3ShfP41396ipl5OYOOjYkQYeBp2tHZxQc79/HhngOcraymvbP7isvZa7QaIiOsWExG9Ho9Rr2eQCCAoqp4fT5cbi89fX0jzngfDmuElek5WaxYPJ87b1k/KevdjBeqqnL42En++srbHCw6HrT1OoDZbOIfHn+Ir3z+U6N6f7fHQ2l5NXsOHGHLh3soq6wJyew3YgSBubNncOfN61g0L3/USesut4f3t+/muz/69ZChhEsXzOXf/ukpZkybOvjyYyXE8yiKQnNLG3sOHGH/kROcKaugqblt5HvICSA2xsbUKZksLpzDTetWMjU785oxxlwpfXY7r7y5hc3bdlFcWj7owZqUGM9XP/84D919y4jeT1FVGhqb2XOgiDc3b+NY8ZnxFeBFaLQaFhfO4b7bb2JRYf6Iltgul5t3tu7kh7955oLgk09iNhu57/ab+foXnwhaO2nMhXgeVVVp7+jkyPFTFJ04RWl5JeXVtfT12lEmQV94SaMhIzWJ6bk5FBbMZPGCuUy/hqyhoURVVY4cL+a1tz/go4NHaDnXzs9qMXPTugGjxEgC/2VZ4UDRMf7+9gds27Vv1C0NJBEijCqRJhW9RkCrAVFQkRUBbwC8PuhzCzi9MEzR98EIAvGxMdyyYTW33biG/Bl5QwZnuNxu3n5/B794+rmPv4eLMej1LFtUyJc++wjz8mcGv+R4CfGTOJwuyqtqKT5d9rEgq2rqxqRl2nCc7z0xkI6UxewZeRTmzxjXnMarFVVV6e7tY/vu/ZScKcPj8ZGelszaFYuZmZdzye/P3u/g3a07efGNdyk5fekQOwBJguQolYxYlbQYgXirQLRVJtoso9co6LUqkiAQUAS8fnD7RLqdIp0OkbZegfpulYZO6HAIXCpUGAaSGBbMmcXD99zByiXzsVguNLI4XW7eev9DfveXv9HQ2BpUhHqdjkWFBTz15MMsnFcw9u6Ly2FgH9lNdV0D1bUNVNbUUVvfRE19I40tbfhDvHwVRJFIq4WM1GQy0lLIykwjJyuDnCnpZKamhMRqdr1x3sDi9fqIiLBiHEH7vo7Obv78wt959a33h63Mfp5Yq8qsVChIh6lJftKiZVKiA0RbVEQuffv6FOjq19DULdLQpeNss8jJeihpFHB5GPYdJI1ETlYGD919K7dsWE1cTDQwsBx9Y/N2/rjpZerqg/ueNVoti+bl85XPfYqF8/KH9V1OqBAvpqe3j7b2TlraO2hp66S1tZ3GljZa2tpp7+yip9eO3eEYOtj8PIJAhNWM1WIhJiqShIRYkhLiSYqPJykxjsT4WJLi44iLi8FoGDsHdJjBNDa38rtnX+StzduGLAAGgACJEbAkV2VZrsyMZD8ZsX5MehBGIL7h6HVJVLdrKG3WsqtUYG+ZiHu4Z74wUP7zobtu4b47b8JqsfDme9t4ZtOr1NQ3BhWhpJFYMGc233jq08yfk39Jv+qkEuInURQFh9NFX5+dvnOFeN1uN06XB4fThcftwevz4/P5kCQJSRLR63UDPSisFkwGAwaDDpPRSKTVQkSEhQiLBUNYeBNGQ1MLP//Dc2z+cPewbiSzAZbnKtw6VyE/3UtSpIxOE/rb1BcQqO3UUFyn47UjEgcrh78vEhPiuPPmnP2ikwAAIABJREFU9ZgMBt7e+iE1tQ3/WzD7EwiiyLz8GXzrH79AYf7I+n1OWiEOhaqqBAIBAgEZWVaQFXkgGFwQkDQSoiii02rDYptktHd08ZPfPss7H+wYsgqfKEBmnMqjy2RWTfeTGuNHL4397ekLCFS1a9laouP5jwS6HUMLJ9oWCQjDtuIrmDmN737rKxTMnD7iULqrTojXIqqq4nK56bP30+9wYnc4cTgd9DucKIqCQa8fqFkjCERYLURarURGWomKiAhpS/Wxos/ez8//8ByvvbN1SB/b/9/eece3cZ55/juDQSMAkmDvpNipQqr3ZhVLsmy5x3HsOE7bJM5lL7dZ53PJbRLfnu+S7MabTTbxxk7idRI77t2SZVWri5KoQlGU2HtvYEMbYOb+oOTIJkABFCVBCb7/6KPPAIMXxPxm3vd5n+f3aCVYlKPw2FqZWRluLIbrv4Vhc4icrDfwb9slKlomdyOfUZDLT574LjMKcoPKZ73ijmVXdy8HjpZRU99IWnIi629ZRmJCfNjha5J4FYXe3n7Onq+htr6RptZ2Wto66O0bwC27x57yFw2ivF4FFfUTDUw1Gg2SRoNGo8Go15OQEEtm+ph7d35uFoX5OVijIkNmRuD1enn5za1s3bGX4WHfUXG9BLfPUfjvG10kW91ob1CrjmijwooiO/FRen69S8f2M+LEkZxPUZSfw8+e/B4FOdlB59pO+ESsrW/i6edeZPf+I7g8MlpRw8zCPL737a8zY3p+uLlJgMgeD8dPlrPvyHFOl1fS3NqB0+1CdsvIXg8eWZmcC7ggoBFFJK2ETpLQarWYzBHkZIxZ7K9YPI8ZRfk31Gtmx95DPPX0c1TV1vsM72s08PAyD9/e6MQaEcCewnVAQaCpR+Lp3TpeK5UCEmNBXja/+L//i/y87ElVEPkVotst88Jr7/LT/3j2E+lil4pCf/LDf2TOrOmT7vD7t0DFhWre27aH7fsO0t3bh9ftQfZ6r3nmiEYUES96oSYnJrB6+UI2rlnJvJIZ1/VJWdPQzE9+/hv2HDzq9zs/slzm+3c5MUg3LpvGF6o6Fsj5+QcG3j058TWel5PFL378TxTmZk+6vMrv1HRwaIimlrZxOZuqolBb38hjj/+IX/74nybcpPxbxOV2s3vfEf7w8lucOHMWr1cJ2O90qvAqCl63G9ntpra+kdqGJn73p9fIz8ni0c/ezZZN63xWAEwlsuzhve27OVx2yq8Ib5vt5Ud3O9FoQkuEAB5VpbVPoqzhyq997EsPkZuVeVU68PtOg16PxWLGnzFMd08fX/mHH7B994HAfD3/ivF6vdiGhnj17W3c8bmv8a3/+b8pLTs9ZjkRCrEwVQVVpbq2ge8/+W8su+0B/t/P/5OWtnZk2cNUx+tUVeXw8ZPs3X/E7zbF7CyFf394NCRFKCtwok7P917V0jZwZXE9/+fXGRj07YQfKJonnnjiCV8H9HodLpeb89W1F+vQxr/G7XKzbfd+7HYHMwvzMeh1IRMkuB7IHg/9AzY+2HWAH/7kF7zy9lZ6e/snd2ELAhpJGusCrJXQa3Xo9Tp0eh2SVotOp0XSSWg0GkRRgyBMXuMul5uy8kre3b6HoZFREhPiiDAakTSaKfn9+gds/Pn199l14IjPQSZEqfzmi04SIkNjTXg5sgJl9Ua++7KW1v7AnnBdPX0kJiZQXJQ36SLjCYM1DqeLt7bu5JnnX6K5rWPCtc2C2bP43ne+QWHOtL96dy+Px8PA4BAnz1Tw4mvvUXrqDC5nEOl4goBBp8MYYUCvGxNblMVMUnw8MdYoIiPNRFssREaa0UoSDqcLr1dBlmVsQ8PYBofo6euno6uX0dFRXG4Zl8uFw+XE5ZKDU6ggkJ6WxEP33cnmdatIjI+7KtdxRVHZvf8IP/3lM9TWN407rtfC/7nPzd0LHDcsOuoPrypSVqfj8Ze1NPUGN7j09BRe+90vJl0QfcV9ROdFMf7+xddpaG7x7/AlCCTFx/G1Rz/LulVLSEqIDzk/z6vF6/ViGxziXFUtb76/gz0HjgScqC6IIpFmE9FRkcRYo8nLzmTW9ALysjPITE8lLiYmaO9XWZbp6umjqaWN6tpGzl6opqG5lf5+G7ahYUZG7AFHY/U6HQvmFvPQfVtYOHcW1uioSa15+gZsPP3cn3nuxdfH37gF2DDLy08/6yA6RCKkl/CqIifrx0TY2OP7e2s0oBHA4wVfxn7/6x++wVc+/5lJzSoC2tB3uWU+2LWP/3rpDSqraiesmNbrdCxeMJvP3buF2bMKiY+NnTL/khuFoigM2Aa5UFPPzn2H+WDXPrq6ewN6r0GvJzkpgbTkJOaVTGfxgtkU5uUQHRV5TcY6ODRMZXUtJ05WcPrceVraOujo7GZ41B7QkzI+LoY7Nq5ly8Y1FOROw2gIPBFeVeHw8TKefOo/OV9VO+54rEXl6UddzM+W0Qihszb0qiLH6/R8/1WJ+m7/IpyRCrFmhfIWDX3D4/+WeTlZvPXHX2M2Be9j5HeNeDmSRkN+ThbJCQkMDg3T09vnN0Dj9Xppam2ntOwMg8Mj6PVajEYDBr3hpls/qsDAwCAny8/x5vs7eeb5l9l36BijEyUrXyQqykJhfg6rly/ikQfu5CuPfIbVyxeRlpJ8TbNhDHo96SnJLJpXwrpVS5hRkEdUZCR6nRbPReezibDbHZRXVlPf0IJWqyUhbszLJZDfzul0svdAKe9s34PiYxlz7wKV2+e4MOlCS4RHq3X86A0tdVcQ4ddvkdlQIlPfraG5d3zqef+AjbklMybVhCkgIcKYP+S0zDQKcjJRVJXO7l7sdoffvU673cHZ8zWcrjjPgG0IVVUwRxgxGG4OQQ7YBjl+6ixvb9vF7154lV37DjMYQDel6KhI5hbPYMuGNTz64D08eM/t5GRlYNBf/1Q0nVZLWkoSyxbOZf7smSQnJqDVanE4XQxPUISrKgptHZ2crriAV1HIz84MaN3f0tbO6+99SHVt/bhjsRaVb633kpvkQRRCIJLMmAgPXNDz43e1VHX5F+H0VPjaGpl1xQ6SLF66BnVUtoPDPf46drk93LHhlqDHErAQLxEXG0PxjAIiLWZ6+2z0TNAXUFUU+gdsnK64QMX5arr7BnC5ZYwGHRFG/x6PNwpFUWhubefwsVO8u303f3zlbXbsPciA7cqhaYvZxLySmdx523q+8ODdbFq3ipSkhJC46QiCQHRUJLOmF7BwbjGJ8XHodToGbEPYHf6rIEbtdqpqGygqyCMzLWXCiKCqqpy7UMOfXnvHZ7PWtTNU7pjrJsoYGmtDryqy77yen2+XqGz3ncqmEaEoFb62xs36WS4MkooojgWczrRo6fBh29PT18/9WzYFHbAMWogARqOBmUV5pKYkf3z3nGgvUVUU+vptlFdWUXG+mvqmFrq7+/AqXqKjLDc0qKOqKn39A5yquMCuvYd4c+tOXn1nG/sPldIXgNep3qCjuKiAu26/lYc/cycb16wgOTE+5G4ylzCZIphemMucmYXExVpxu2V6+vrx+ClZd7pcZGekUTyjYMKnusvl5vCxU7y3Y++4G7NWA4+u9DAnS0Z7HaoproSiCHx03sh/7NRyrkXE12aARoSCZPj6Wg/rZ30y88cSoXK2WU9N53gLDpfLzZziGeRlZwY1pkl3SZEkiVuWL2RaRipzi2fw/o69nDhTMeEWh9fjob6xmfrGZj46VEp+dhZFBbkU5edSkJtJfvb12fpwu2W6enqoa2yhur6Zmtp6auoaqWtsDjioodFITMtMY82Kxaxatoji6fk3jdmwKAikpiTx4L23M2t6ATv2HmT73gM0NbX6fL1er7tiwM02NMSF2nqfv396rEJ+khej9savDb2qyN5KPf+5W+Jci4DHx5AEEXIT4RvrLj0JP/miCK1CSaab/Rd0dPi4Vx86VsamdSuDGtdVtyvKykglLeUOZhXlsXv/Ud7ZvovW9s4rvm9gYJDSsjOcOHOOxPhY0pITSU1JIj87i/zcLNJSk0lJTLjqi9urKNhsg3R0dtPe1U1rezeNLa20tXfS0d1LR1d3UO2tEQSSE+NZs2IJa1YsoWRmAbHW69ModarR63TMLZ5OVnoKMwrzeHvrTg6XnfpE24TU5ERKZhZeMXo6ODjsc20IY2usWPONF6GiCOw7r+OZvVrKWwRkX5MAAbLi4O83yKydOV6El5id4SY+Uk+HbfxN+8TpioB7XlxiSvqGSZLEnJIZTMtKZ27JDD7ce5A9B44E5Efi9Xho7+iivaMLTp0lOtJCQlws0VEWoiIjSYiPJTUlifiYaMwmIyZTBGaTCVEUURTloqO3G0VVkWUPtsFhhoZHGBwcxjY0xIBtiAHbIIPDIwyPjDA4NIxtaDh409qLRsNrVyxh/erlFE/PJyE+7qZPehcEgdgYKxtuWU5udgZ7DpSy/1Ap3b39pKckceemdZTMLLpii7nhUTtNre0+jxWlgNU88drQLouUN0p0DYukRCtMT5Ux6aduGqsg8NEFA7/Zq+VMk4AvtxUBSLXCd29zc8sEIgTIjIcY88U3fWqY7Z1d2AaHsEZHBTy+KWvgJwgC1ugoVi9fSFF+NrfespydHx1k9/7ABAmAqmIbHMI2OHTppOj1WkzGCAwGPdqL6V9aSYsoCGPu3qr6cfdeRVE+ts9wX/zX5fZMrsTo4y8GFouZW1ct49Y1K5lZkENiQlxI9z6cDHq9jqK8HFISE1i/cgl2pxOLKYKUiw1cJmLMQGrU55paI41NTc06/6Iacoj84sMIDlZpcLjBYoQ10/U8uNROSvTVB3dUVeBQlYFn9+g43QhuP5dDfJTKD+6SWV3kRH8Fa44InUKqVcGgFfh0UpXbJdPQ3HZjhHgJjUZDSnIiCfGxFE/PY/P6VXyw6wC7Dxymu6cvuJOpKi6nO7j0sSnEao1i09qVbF6/mpxpGcTGWNH+lQnwci5FV4NNNnC7Zbq6e3xmXcWaVCIjVETR94UtK7Cj3MCrRzUMX5oRC9Bh0+BRIvjy6lHirmJaq6oCh2v0PL1Ly8lG/yKMMSn8+DMyywtdAdlzCKhkxXsw6SWcn9rG8KoKbe2dzC2eHvA4r9lVJUkSCfFxxFijmVmUz4P33c6RY6fYtvMjKmvqrmk/g6tCEJg1PZ8tG9ayetlCYmOsREWab7rmo9cTtyzT6yfCnGABi97/U82jiOyrEv4iQgAV+kdUXi0VsBgjeHiZnchJWGeoqsCxOh3/sUNHWYOfNSFgNak89bDMsgInuiBWGgmRXgzS+Ii/qo4lggfDNb+9S5JEjDWa6Kgo8rOzuG/LRs6er2Hrzr3sPXCU3gn2Ia8bgkB+Tha3LF/MulVLyc5Mw2SKQK/726ommSyKouDwsx9pNsCVcsj9/Yn7RgSe368hymjkngWOoKKuqipwqknHU9v1lDX4NxSONqn8/KIIg01CN+lA8nF/HjNfDqDN32Vct3mWKAoYDHoMBj0rl8xj6YISHE4X5ZVVfHSwlL0HS6lvbL5ewyEu1srsmUUsmFfCkvmzycpIxajXo9FIN31u7PXG6/Xi9NP0R69V0fqZlgLoNLCh2MO7J31YUqjQMwhP7xwT44aS0YDEoiJQ0abjX97Xc6JO8JmgDRAVofDU52SWTkKEAGaDikb0Ea1BxRnkcuqGLHhEUUSn06HT6VixeD4rFs/nB//4TZpa2iktO825qloqL9RQVdfA0HBw/RA+8TmAoNGQEBdDYe408nOzKcydxvSCXDLTU28KB7SbAUVRcbp8C1EnqWgmEKJGUFhRIPPAIolXjo6/HFWgbUDgqQ9Eoo0Glua7/K43x14vUNOp48m3dJTW+b+hRkXAvz7oYUVRcNPRy4nQKUi+xqIKQTdZCqnIQ2Z6CpnpKR//X5Y9tHR00tTcSld3L719AwyNjDJqdyAIApIkIUmaiy2RBcxGIxaLifi4GOJjYoiLtRITY8VwA82T/hYQRQGdn+wo2SvgVSeeYUQaFP5hk4tBu8DOCo3PhjEN3SI/2SrxzwaV2Vlun1b7qjrmT/qjN3SU1vnpMQHEmAWeuNfFyiLXpEUIIHtF36sqQUWvC+6aCykhfhqtViI7I43sjLQbPZQpR1EUvF4FRVVQ1bFtGFRAGIteCgiIonixIj+0p8qiKPqdXbhl8HqvHANIiPLy+O1uRlx6jtSIPsVY0aLhZ9vgh3ep5KfInxCjqgo09Eo8+Y6OIzV+1CWM9dF4fLPM2hlODFfpHu5wq3gUX1NTYVzDmisR0kL8a0BRFBxOFy6XC5fLjcvtxul2Mzw8evEJP4LT6cIlyygeL4gCEQYDWklLdJSFxLgYLBYzWq2EQT+2xjbo9ehDyJZEo9Fg9NNFedQFLk8AlvOoTIuT+c4mkSfdOk43CT7FeLhawy936Hl8s0pWnAdBUFERqO/W8sRbOg5c8BPdFiA1Gr61wcPmOQ4iJtjXDJRhl4jHxwJUEMASpDlXWIhTzKWeHcPDIwyOjNLb109NXRMNTS00tbTR2NZGb88ADqfzyie7iNFkJDE2luzMdHKmZZA7LZNpWWnEWaOJirRgMZuvyt7iapEkCauP5psw1gLN7gps60cUVWZmOPn7DQL/ulXHuTZQfYhx22mRqAg937pVJTnKS0OvxD+/fQURxsA31oyJ0DQFIgToGhRx+tiFEwSBGGt0UOcKC3EKGHNxG6a7t4/Ozl7OVY8Fmyprav227AoGx6iDxtFWGptb2XPgCAgCZlMERXk5FM8ooHh6ATlZ6SQlxhMdFXnds370Oi1JiQkIojjuu/YNCww5BVRVQAigDlErwqJcF99YK/DLD7VUdeKzROmlIxrMeiObZ8v8+4cS+877F2FGDHxptZct8xxYpjBtrn1Awu4jJqMRRLKCXE6FhThJVFVleGSUtvZO6ppaqThfzemzlZy7UBNwBcdVfDgjI6McP1XO8VPlGA0G8rIzWTivhNmzplOQk0V66rV1ArgcjUYzlhscZcY2MPSJYy4Z2gZE7PLYvlsgGCSFVUUOhp3wm906mnrU8VpU4bn9IkdrdZz116dCgIxYeHSFh7vnOyaVFOAPlyzQ1u/7iaiRNGSmpYw/MAHXRIiqqmJ3OOkfsGHQ67Fao8aaqPwV4PF46erp5UJNHefO13LsdDkVldV/yY+9ATicTsorqyivrCLGGs28khksXTiPkpkFFOZmX5fSMpMpgozk5HFCBKhqh4FREZMu8LxRs15lY7GLUafA7/dLtPtIV/Z6uaIIH1nh4Z4FdqKMU3tjbBvQ0GETfAai4uNjL3aNCpwpF6LH46W6vpEdew/S3NqOOSKCWdMLWDR3FmmpySFbMHslZNlDU0srJ8vPc/z0WU6cOktzWwdez1UklF8D+gds7PzoEAePn6SkMJ/lSxewbOFcZhbmXdMC7OhIC3k50yivHN+Gu7IN+kck0qzBJXBHR3jZMs/JsNPInw9r6A70XidAmhU+v9zDvQvsREdM/eyksk2ib8T3eecH2BPxcqZciD19ffzymT+y+8DhsXxSQSAxPpalC+dy6+rlLJ5fElRW+o3G6/VyobaBQ0fLOH7qLOWVF8byCK9y6ilpJSxmEyajEb1Wiyj9xdzX7ZaRZZmRUTsjo6Njtv1B4hh1cLTsDKfPV3G4tIwVixewfvUycoOsHA+U6CgLBfk5+HI+ru8RaeiRKEhxB93vMN7i5b5FDkacEbxxXMPA6BXeL0BKFHxhpYf7FtqxXgMRygqcatLS48fCaNmieUGfc0qF6PF4OHOuml37D+O5ZJ2hqnR19/Lu9j1UnK9m5ZIF3LZ+NTML825ol6JAqK1vYte+wxw8dpKKyqpJTz+t1mgyU5NISkwgKSGeuDgrkWYzZpMJo0GPVqu5mFQ+dhf1eDzIHg92u4NRu52BwSE6u3ro7Oqmpb2T5rZO5AAzN5x2J4ePneJsZTXHT51l49qVbFy7kkjL1LoJGA0GsjPSiImOov9TCeBON5TWCCzJFSfl7p1m9fLQMidDTiMfnP5UgvhlCECcBR5d5eW+hc5rIkKA5l6Jqg7BZ6BGq9OxcE5x0OecUiF6vQpd3b1/EeHlxzweauoaaevs5nTFBdauWsqWDbeQkpQQctPVhqYWPtxzkIOlZZyrqmFgILi+BnqDnrzsLKbn55CXPRY4iY2JwhoVSVRkJBaLKeCEclVVcThd2AaHGBgcpL/fRntXLzV1DZy7UENlVW1A7nLDI6PsOXCEqroGysrP8fD9dzCrqCCo7zURoiiSmpLAzKI89h8+Pu74/iqR+xZJxEUqPrNirsS0eJmvrIYRp4E953wHSaLNAl9dI3P/NXoSXqK0Tk99t+Azmjtv9sxJuX1PqRAlSUNWRgpandZvmZN91E7Z6bM0tbRSeuI0t61bxaZ1K4m0mKdyKJOivrGFbbv3cehIGVV19fQHIUC9Qcf0vBzmzS6mZGYhaSmJJMTFEGO1YryK6KUgCEQYDUQYDaQkJQDg8Xqx2Ybo6e2jsaWd0xXnOXT0BNV1jVdsCNTW3smb7++gu7uXf/rOY+RMC96D0x9pyUnMn1PMgaNl47Yx2gcE9lZK5CTKkw6c5CV6+OY6N0MOPaW1nyxrshjhm+vd3LfQSfQUB2Yup21Aw9FakS4/k6P7t2yclGvDpFzc/CGKIiajkeERO5XVtaj+0t4Bu8NJc1sHFReqOVleiU4nkZWedkOsJxqaWnnxtXf43Quvsnv/EWoamnA4AthwFwSSkxLYuGYFX334Ae6/axOrli5k1vR8UpMSibSYr0khsSiKREQYiY+LYVpmGjMLc1k0v4SC3Gzcbplemw2PLy+IiyheL339A0RFWlg4r2TKxqXTahkdHeX02fPjntIq0GETWFWoEGdR/JY+TYQgQJxZITdJoHdEpG0APF6B9FiFb2/0cM8CJ1HGa+eNo6oCOyqMvH1Cg81HLUJsrJUfPf7fgnJHv8SUXyWxMdE89qXPkZmWwp/feJfG5ja/r1UVhY7Obrp7+6msquHF197jvjs2cuua5UQYg/8yweB0uTh7vpodew5SeuI0Ta2dDI0EZiKl0UhkZ6WxZcNali2eS1pyEtFRkTcku0XSaIiNsRJjjSYnK4PVSxdw/PQ5Xn77fc6Un/dbBeB2y9Q3+3ZtmyyCIFCUl8Pi+bNpahn/u7f1C7x8VOLx22Usk5wkiKLKrDQXP7zbS++wBrtLJM7iJSXGPWUZM/6o69aw55yGdh9+pgD33rFh0q0UAup9ESyX9hHr6ht56a1tvLdzLyMBNGvRaCSiI82kpSSxZtVS1q1aSlF+zqRaIfsbV2d3L3sPHGXH3oNU1TVgGx7G6XBO+PT+eHySREHuNB68ezPLF88jPi42JI2SXS43/TYbHx06xm//+CoNza3jbjBmUwRf/vxn+B9ff3RKP9vrVXjvwz389JfP0tHZPe64yQDPfNHJ0jz3hOVMgaCqAqrKVZ8nEJwekT8eMPHrnSKDProWRFujePsPvw46o+YS10SIl1AUhVG7g+Onynn2T69y/GS5/25Slw9KFNDpdJhNEWRnZbB0wRwWzJnJzML8oO84suyhoamFY6fOcvBoGWcrq+gfGsTtlAM2lRJEkcyMVL702XvYuHblx6bIoZJ07Q+3W6a7t4/f/ulVXnlz68c1g4IoMqswj1/9y4/ICDIDJBBa2zv52a+f4+2tO3weL0xWeOGbV+dFc73ZV2ngJ+/ruNA+vucFwFcfeYDvfPNLk26tcE2FeAlFUbANDfPuB7t57sXXafZju+cTQUAjahBEgQijnpSEBDLSU0hPTSYxPhaL2YRGo8FgMCBpNIyMjNBvG6K1o4vG5haqaxsZGBr+2Hox2LzPuNgYvvqFB3jgzk1YzOab0j7R4/FQeaGWF954j7a2DopnFfH5++8kOTH+mtxMVFXl/R0f8bNf/c7nFBUBbp/t4VdfmHzR9/WkpkvLU9sMbC/3bc2fkpzIS8/+GxlpKZP+e14XIV5Oc2s7z/35Dd79YDcDg4MBTQmvN4IoYjJH8OXP3cuXH7o/JCK6NxvDI6M89fRzvPDaO34DR/+42clj630X+YYK3UMantkTwX/tE31bbggCP/3h49y1eV3QxcCXM6VR00CIirSwetkili2ex+iond7+AWSPx2cbr+uJIIoY9TqSEhP44ufu5d+f/D5rViwJ+aSDUEV/cWlR39hCR2e3T6kdrpVIiFQpTFYItYmGqgr020VeOhLBb/eKeJXxTzpREFizcglfeuheoiOvrt/ldX8iXo6qqpwsr+SVt7ZysLSMgaEhHHbn9XN1u8zAeFpGGpvXr+KuzeuxRkeF/PrvZkBVVV56cyu//v0LtHV0+fxdjTr4wV0u7pzvuuZRz0BR1bHtkVdLDfxqh8Zn+zWAaZnp/MsT32VeSfC5pZ/mhgrxcuoamnj9/Z0cOnKCnv5+bMPDOEb9twybNBfFF2kyY7VGUzyjgE1rV7Bo3mzMQVZVh7kydruDn//meV55e6vfNucmAzy2TuaBxU5iTWpAdYvXCgWBlj4Nrxw28Nt9IrLHtwhjrNF879tf5/ZbV2Ocgq22kBHiJUZG7Rw5fpoDR09w7kINg0NDDA2PMDw8isPlCv5pKQhotRIWkwmL2YTVGkV2ZjqL5pawZMFsUpOTbsoAzM1ES1sH//qr37Nz70G/zgQmA9w118sjK2SyEoJPDp8K3B6Bc206nt+n5b1TGv82jJEWHrr/Tr744D3Ex8VMyWeHnBAvoaoqg0MjVNc1UF3bQHVdIx3dPYyO2nE4nDhcLmRZxutVUAUVr0dBVVQkSYMkSRh0WgxGI2ZTBAlxseRkpZOfM42i/GwSE+JCbu/vr53zNXU89avfs+/ICb8J6zoJ5mfD55fLzMtyEW9RrsvTUVUF2mwiJ+oNPLtHpLLN/7VhMZu487b1/N0jn5nSrZ+QFaIv3LLM4OAQff02+mw27KNO3LKMoqohgps9AAADkUlEQVS43TJerxeDQU+EUY/FbCYhNobYWCsWsym85gsBTpaf4xfP/IFDx076T8ETICkabi9RWDvDQ2GKm+iIayfIrmEN51t1bDuj4b2Tot/1IEBkpJn1q5fzd194gIKcaVM6jptKiGFufk6Wn+OZ519m1/4jExZVayXIT4JbihQWZnsoSJGJi/SgmYL7qaxAx4DEhXYdR2s17DoHLb0Tb6LEWKPZsGYFj3z2Lgpzs6f8xh4WYpjrzoXaep79wyts3bn3ip2+dBLkJKjMyYQZ6V5yEz1kxMkkRI65hAeKyyvQPaihqUdDdaeWilaRsgaB1v7x7bc/wcXC9js3rePBuzczLSs94M8MhrAQw9wQWts6eO29D3nlra10dvUE9J4Ys8q0eMiIg/QYgaRoD7EmL7EWBaNWRacFSaPg8YBTFhh1iQzYRXqGNHTYJFr7obFXobFHHCsuvsKVr9FI5GZn8MBdt7Fx7QpSkhKv/ov7ISzEMDeMUbudnXsP8dKb73Ps1Nmg0g910lgnJ2vEWC2iXhLQSqARx5zFZa+A3a0y5ACbHYYcvrsE+8NoMLB00Vw+e/ftLJ5fctUt5K9EWIhhbigej4fyyir2HCjlnW07aWnruKHjEUSRzLQU7t+yibUrF5ObnYXkq/faVH9uWIhhbjTqxZbtJ8vP896Hu9l3+FjQ9iRTgdUaxe233sLm9aspys8hyo97+bUgLMQwIYPH46Grp5fKqno+2L2Pjw6WjjOiuhbExlq549Zb2LRuFdMyUomPi73u211hIYYJOWTZg21wkKbWDspOV7Djo4NUXKjB5acZ6mTQSBLF0wtYv2oZK5ctICUx/obmGIeFGCZkURQFp8vF8IidhuZWTp05x/FTZzlVUcmAbSiodEdBFElOjGfOrCIWzClmTvF0khLisJhMGI2GG57wERZimJsCRVE+9nuV3TKdvf00NbfR1NxKR08Po3YHDrsTl9uNXj9WgmUxm0lKiGNaZhpZ6alYo6PQabVIWglJkqbMgmUqCAsxzE2JCnCpwevH/7/sBcKY4TBcbPwaQqLzRViIYcKEAOEShDBhQoCwEMOECQHCQgwTJgQICzFMmBAgLMQwYUKAsBDDhAkBwkIMEyYECAsxTJgQICzEMGFCgLAQw4QJAcJCDBMmBAgLMUyYECAsxDBhQoCwEMOECQHCQgwTJgQICzFMmBAgLMQwYUKAsBDDhAkB/j8V9fLUWamSNgAAAABJRU5ErkJggg==;" vertex="1" parent="bCabj6HtADndmNLXBCn1-18">
          <mxGeometry x="14" y="115" width="40" height="40" as="geometry" />
        </mxCell>
        <mxCell id="bCabj6HtADndmNLXBCn1-24" value="" style="shape=table;html=1;whiteSpace=wrap;startSize=0;container=1;collapsible=0;childLayout=tableLayout;strokeWidth=2;fillColor=#dae8fc;strokeColor=#6c8ebf;" vertex="1" parent="bCabj6HtADndmNLXBCn1-18">
          <mxGeometry x="68" y="109" width="74" height="54" as="geometry" />
        </mxCell>
        <mxCell id="bCabj6HtADndmNLXBCn1-25" value="" style="shape=tableRow;horizontal=0;startSize=0;swimlaneHead=0;swimlaneBody=0;top=0;left=0;bottom=0;right=0;collapsible=0;dropTarget=0;fillColor=none;points=[[0,0.5],[1,0.5]];portConstraint=eastwest;" vertex="1" parent="bCabj6HtADndmNLXBCn1-24">
          <mxGeometry width="74" height="18" as="geometry" />
        </mxCell>
        <mxCell id="bCabj6HtADndmNLXBCn1-26" value="&lt;span style=&quot;font-weight: normal;&quot;&gt;&lt;font style=&quot;font-size: 10px;&quot;&gt;PM2.5&lt;/font&gt;&lt;/span&gt;" style="shape=partialRectangle;html=1;whiteSpace=wrap;connectable=0;fillColor=none;top=0;left=0;bottom=0;right=0;overflow=hidden;fontStyle=1" vertex="1" parent="bCabj6HtADndmNLXBCn1-25">
          <mxGeometry width="37" height="18" as="geometry">
            <mxRectangle width="37" height="18" as="alternateBounds" />
          </mxGeometry>
        </mxCell>
        <mxCell id="bCabj6HtADndmNLXBCn1-27" value="&lt;span style=&quot;font-weight: normal;&quot;&gt;&lt;font style=&quot;font-size: 10px;&quot;&gt;PM10&lt;/font&gt;&lt;/span&gt;" style="shape=partialRectangle;html=1;whiteSpace=wrap;connectable=0;fillColor=none;top=0;left=0;bottom=0;right=0;overflow=hidden;fontStyle=1" vertex="1" parent="bCabj6HtADndmNLXBCn1-25">
          <mxGeometry x="37" width="37" height="18" as="geometry">
            <mxRectangle width="37" height="18" as="alternateBounds" />
          </mxGeometry>
        </mxCell>
        <mxCell id="bCabj6HtADndmNLXBCn1-28" value="" style="shape=tableRow;horizontal=0;startSize=0;swimlaneHead=0;swimlaneBody=0;top=0;left=0;bottom=0;right=0;collapsible=0;dropTarget=0;fillColor=none;points=[[0,0.5],[1,0.5]];portConstraint=eastwest;" vertex="1" parent="bCabj6HtADndmNLXBCn1-24">
          <mxGeometry y="18" width="74" height="18" as="geometry" />
        </mxCell>
        <mxCell id="bCabj6HtADndmNLXBCn1-29" value="&lt;font style=&quot;font-size: 10px;&quot;&gt;NO2&lt;/font&gt;" style="shape=partialRectangle;html=1;whiteSpace=wrap;connectable=0;fillColor=none;top=0;left=0;bottom=0;right=0;overflow=hidden;" vertex="1" parent="bCabj6HtADndmNLXBCn1-28">
          <mxGeometry width="37" height="18" as="geometry">
            <mxRectangle width="37" height="18" as="alternateBounds" />
          </mxGeometry>
        </mxCell>
        <mxCell id="bCabj6HtADndmNLXBCn1-30" value="&lt;font style=&quot;font-size: 10px;&quot;&gt;CO&lt;/font&gt;" style="shape=partialRectangle;html=1;whiteSpace=wrap;connectable=0;fillColor=none;top=0;left=0;bottom=0;right=0;overflow=hidden;" vertex="1" parent="bCabj6HtADndmNLXBCn1-28">
          <mxGeometry x="37" width="37" height="18" as="geometry">
            <mxRectangle width="37" height="18" as="alternateBounds" />
          </mxGeometry>
        </mxCell>
        <mxCell id="bCabj6HtADndmNLXBCn1-31" value="" style="shape=tableRow;horizontal=0;startSize=0;swimlaneHead=0;swimlaneBody=0;top=0;left=0;bottom=0;right=0;collapsible=0;dropTarget=0;fillColor=none;points=[[0,0.5],[1,0.5]];portConstraint=eastwest;" vertex="1" parent="bCabj6HtADndmNLXBCn1-24">
          <mxGeometry y="36" width="74" height="18" as="geometry" />
        </mxCell>
        <mxCell id="bCabj6HtADndmNLXBCn1-32" value="&lt;font style=&quot;font-size: 10px;&quot;&gt;O3&lt;/font&gt;" style="shape=partialRectangle;html=1;whiteSpace=wrap;connectable=0;fillColor=none;top=0;left=0;bottom=0;right=0;overflow=hidden;" vertex="1" parent="bCabj6HtADndmNLXBCn1-31">
          <mxGeometry width="37" height="18" as="geometry">
            <mxRectangle width="37" height="18" as="alternateBounds" />
          </mxGeometry>
        </mxCell>
        <mxCell id="bCabj6HtADndmNLXBCn1-33" value="&lt;font style=&quot;font-size: 10px;&quot;&gt;SO2&lt;/font&gt;" style="shape=partialRectangle;html=1;whiteSpace=wrap;connectable=0;fillColor=none;top=0;left=0;bottom=0;right=0;overflow=hidden;" vertex="1" parent="bCabj6HtADndmNLXBCn1-31">
          <mxGeometry x="37" width="37" height="18" as="geometry">
            <mxRectangle width="37" height="18" as="alternateBounds" />
          </mxGeometry>
        </mxCell>
      </root>
    </mxGraphModel>
  </diagram>
</mxfile>
